STARTFONT 2.1
FONT -HP-Pilgi-Bold-R-Normal--40-400-75-75-C-200-KSC5636.1989-0
SIZE 40 75 75
FONTBOUNDINGBOX 20 40 0 -6

STARTPROPERTIES 23
FONTNAME_REGISTRY ""
FOUNDRY "HP"
FAMILY_NAME "Pilgi"
WEIGHT_NAME "Bold"
SLANT "R"
SETWIDTH_NAME "Normal"
ADD_STYLE_NAME ""
PIXEL_SIZE 40
POINT_SIZE 400
RESOLUTION_X 75
RESOLUTION_Y 75
SPACING "C"
AVERAGE_WIDTH 200
CHARSET_REGISTRY "KSC5636.1989"
CHARSET_ENCODING "0"
COPYRIGHT "Copyright (c) 1994 Samsung Hewlett-Packard Company."
WEIGHT 200
X_HEIGHT 34
QUAD_WIDTH 20
_HP_ASXVERSION "@(#) ASX 3.00 $Revision: 13.9 $ pilB40a"
DEFAULT_CHAR 32
FONT_DESCENT 6
FONT_ASCENT 34
ENDPROPERTIES

CHARS 256

STARTCHAR CODE000
ENCODING 0
SWIDTH 451 0
DWIDTH 20 0
BBX 20 40 0 -6
BITMAP
000000
000000
000000
000000
000000
000000
000000
000000
000000
000000
000000
000000
000000
000000
000000
000000
000000
000000
000000
000000
000000
000000
000000
000000
000000
000000
000000
000000
000000
000000
000000
000000
000000
000000
000000
000000
000000
000000
000000
000000
ENDCHAR

STARTCHAR Code1
ENCODING 1
SWIDTH 451 0
DWIDTH 20 0
BBX 20 40 0 -6
BITMAP
000000
000000
03FC00
0FFF00
1F0F80
3C03C0
3801C0
7000E0
7000E0
670E60
EF9F70
EF9F70
CF9F30
C70E30
C00030
C00030
C00030
C00030
D801B0
D801B0
DC03B0
DC03B0
CE0730
EF0F70
E7FE70
73FCE0
70F0E0
3801C0
3C03C0
1F0F80
0FFF00
03FC00
000000
000000
000000
000000
000000
000000
000000
000000
ENDCHAR

STARTCHAR Code2
ENCODING 2
SWIDTH 451 0
DWIDTH 20 0
BBX 20 40 0 -6
BITMAP
000000
000000
01F800
07FE00
0FFF00
1FFF80
3FFFC0
3FFFC0
7FFFE0
7FFFE0
7DFBE0
F8F1F0
FDFBF0
FFFFF0
FFFFF0
FFFFF0
FFFFF0
FFFFF0
FFFFF0
FFFFF0
FFFFF0
FFFFF0
FFFFF0
7FFFE0
7FFFE0
7F9FE0
3FFFC0
3FFFC0
1FFF80
0FFF00
07FE00
01F800
000000
000000
000000
000000
000000
000000
000000
000000
ENDCHAR

STARTCHAR Code3
ENCODING 3
SWIDTH 451 0
DWIDTH 20 0
BBX 20 40 0 -6
BITMAP
000000
1E0780
3F0FC0
7F9FE0
7F9FE0
FFFFF0
FFFFF0
FFFFF0
FFFFF0
FFFFF0
FFFFF0
FFFFF0
FFFFF0
FFFFF0
FFFFF0
FFFFF0
7FFFE0
7FFFE0
7FFFE0
3FFFC0
3FFFC0
3FFFC0
1FFF80
1FFF80
1FFF80
0FFF00
0FFF00
07FE00
07FE00
03FC00
03FC00
01F800
01F800
00F000
00F000
006000
000000
000000
000000
000000
ENDCHAR

STARTCHAR Code4
ENCODING 4
SWIDTH 451 0
DWIDTH 20 0
BBX 20 40 0 -6
BITMAP
006000
006000
00F000
00F000
01F800
01F800
03FC00
03FC00
07FE00
07FE00
0FFF00
0FFF00
1FFF80
1FFF80
3FFFC0
3FFFC0
7FFFE0
7FFFE0
FFFFF0
FFFFF0
7FFFE0
7FFFE0
3FFFC0
3FFFC0
1FFF80
1FFF80
0FFF00
0FFF00
07FE00
07FE00
03FC00
03FC00
01F800
01F800
00F000
00F000
006000
006000
000000
000000
ENDCHAR

STARTCHAR Code5
ENCODING 5
SWIDTH 451 0
DWIDTH 20 0
BBX 20 40 0 -6
BITMAP
000000
000000
00F000
03FC00
03FC00
07FE00
07FE00
07FE00
07FE00
07FE00
07FE00
07FE00
07FE00
07FE00
1FFF80
7FFFE0
7FFFE0
FFFFF0
FFFFF0
FFFFF0
FFFFF0
FFFFF0
FFFFF0
FFFFF0
FFFFF0
FFFFF0
FFFFF0
7F6FE0
3E67C0
1CF380
00F000
00F000
01F800
01F800
03FC00
03FC00
000000
000000
000000
000000
ENDCHAR

STARTCHAR Code6
ENCODING 6
SWIDTH 451 0
DWIDTH 20 0
BBX 20 40 0 -6
BITMAP
006000
006000
00F000
00F000
01F800
01F800
03FC00
03FC00
07FE00
07FE00
0FFF00
0FFF00
1FFF80
1FFF80
3FFFC0
3FFFC0
7FFFE0
7FFFE0
7FFFE0
FFFFF0
FFFFF0
FFFFF0
FFFFF0
FFFFF0
FFFFF0
FFFFF0
7FFFE0
7FFFE0
3FFFC0
1EF780
01F800
01F800
01F800
03FC00
03FC00
03FC00
000000
000000
000000
000000
ENDCHAR

STARTCHAR Code7
ENCODING 7
SWIDTH 451 0
DWIDTH 20 0
BBX 20 40 0 -6
BITMAP
000000
000000
000000
000000
000000
000000
000000
000000
000000
000000
01F800
07FE00
0FFF00
1FFF80
3FFFC0
3FFFC0
7FFFE0
7FFFE0
7FFFE0
7FFFE0
7FFFE0
7FFFE0
3FFFC0
3FFFC0
1FFF80
0FFF00
07FE00
01F800
000000
000000
000000
000000
000000
000000
000000
000000
000000
000000
000000
000000
ENDCHAR

STARTCHAR Code8
ENCODING 8
SWIDTH 451 0
DWIDTH 20 0
BBX 20 40 0 -6
BITMAP
000000
000000
000000
000000
FFFFF0
FFFFF0
FFFFF0
FFFFF0
FFFFF0
FFFFF0
FFFFF0
FF9FF0
FE07F0
FC03F0
FC03F0
F801F0
F801F0
F801F0
F801F0
F801F0
F801F0
F801F0
F801F0
FC03F0
FC03F0
FE07F0
FF9FF0
FFFFF0
FFFFF0
FFFFF0
FFFFF0
FFFFF0
FFFFF0
FFFFF0
000000
000000
000000
000000
000000
000000
ENDCHAR

STARTCHAR Code9
ENCODING 9
SWIDTH 451 0
DWIDTH 20 0
BBX 20 40 0 -6
BITMAP
000000
000000
000000
000000
000000
000000
000000
000000
000000
000000
03FC00
0FFF00
1FFF80
3F0FC0
3C03C0
7801E0
7801E0
7000E0
7000E0
7000E0
7000E0
7801E0
7801E0
3C03C0
3F0FC0
1FFF80
0FFF00
03FC00
000000
000000
000000
000000
000000
000000
000000
000000
000000
000000
000000
000000
ENDCHAR

STARTCHAR Code10
ENCODING 10
SWIDTH 451 0
DWIDTH 20 0
BBX 20 40 0 -6
BITMAP
000000
000000
000000
FFFFF0
FFFFF0
FFFFF0
FFFFF0
FFFFF0
FFFFF0
FFFFF0
FF0FF0
FEF7F0
FDFBF0
FBFDF0
FBFDF0
F7FEF0
F7FEF0
F7FEF0
F7FEF0
F7FEF0
F7FEF0
F7FEF0
F7FEF0
FBFDF0
FBFDF0
FDFBF0
FEF7F0
FF0FF0
FFFFF0
FFFFF0
FFFFF0
FFFFF0
FFFFF0
FFFFF0
FFFFF0
000000
000000
000000
000000
000000
ENDCHAR

STARTCHAR Code11
ENCODING 11
SWIDTH 451 0
DWIDTH 20 0
BBX 20 40 0 -6
BITMAP
000000
000000
000000
000000
000070
0001F0
000FF0
003FF0
003FF0
000FF0
0003F0
0007F0
000F70
000E30
001E00
001C00
003C00
007800
0FF000
3FF000
7FF000
78F000
F07800
E03800
E03800
E03800
E03800
E03800
F07800
78F000
7FF000
3FE000
0F8000
000000
000000
000000
000000
000000
000000
000000
ENDCHAR

STARTCHAR Code12
ENCODING 12
SWIDTH 451 0
DWIDTH 20 0
BBX 20 40 0 -6
BITMAP
000000
000000
01FC00
07FF00
1FFFC0
1F07C0
3C01E0
3C01E0
3800E0
3800E0
3C01E0
3C01E0
1F07C0
1FFFC0
07FF00
01FC00
007000
007000
007000
007000
007000
FFFFF0
FFFFF0
FFFFF0
007000
007000
007000
007000
007000
007000
007000
007000
007000
007000
007000
007000
007000
000000
000000
000000
ENDCHAR

STARTCHAR Code13
ENCODING 13
SWIDTH 451 0
DWIDTH 20 0
BBX 20 40 0 -6
BITMAP
000000
000000
018000
01C000
01E000
01F000
01F800
01FC00
01FE00
01FF00
01FF80
01DFC0
01CFE0
01C7E0
01C3F0
01C1F0
01C0F0
01C0F0
01C070
01C0F0
01C0F0
01C1E0
01C1E0
01C3C0
01C380
01C700
01CE00
01CC00
0FC000
3FC000
7FC000
FFC000
FF8000
FF0000
FE0000
780000
000000
000000
000000
000000
ENDCHAR

STARTCHAR Code14
ENCODING 14
SWIDTH 451 0
DWIDTH 20 0
BBX 20 40 0 -6
BITMAP
000000
000000
0000F0
0007F0
003FF0
01FFF0
07FFF0
07FFF0
07FE70
07F3F0
079FF0
06FFF0
07FFF0
07FFF0
07FF30
07F830
07C030
060030
060030
060030
060030
060030
060030
060070
0601F0
0603F0
0607F0
0E07F0
3E07E0
7E07E0
FE07C0
FE0380
FC0000
FC0000
F80000
700000
000000
000000
000000
000000
ENDCHAR

STARTCHAR Code15
ENCODING 15
SWIDTH 451 0
DWIDTH 20 0
BBX 20 40 0 -6
BITMAP
006000
006000
006000
006000
006000
606070
7060F0
79F9E0
3FFFC0
1F9F80
0E0700
0C0300
1C0380
1C0380
180180
180180
180180
180180
F801F0
F801F0
180180
180180
180180
180180
1C0380
1C0380
0C0300
0E0700
1F9F80
3FFFC0
79F9E0
7060F0
606070
006000
006000
006000
006000
006000
000000
000000
ENDCHAR

STARTCHAR Code16
ENCODING 16
SWIDTH 451 0
DWIDTH 20 0
BBX 20 40 0 -6
BITMAP
400000
600000
700000
780000
7C0000
7E0000
7F0000
7F8000
7FC000
7FE000
7FF000
7FF800
7FFC00
7FFE00
7FFF00
7FFF80
7FFFC0
7FFFE0
7FFFF0
7FFFF0
7FFFE0
7FFFC0
7FFF80
7FFF00
7FFE00
7FFC00
7FF800
7FF000
7FE000
7FC000
7F8000
7F0000
7E0000
7C0000
780000
700000
600000
400000
000000
000000
ENDCHAR

STARTCHAR Code17
ENCODING 17
SWIDTH 451 0
DWIDTH 20 0
BBX 20 40 0 -6
BITMAP
000020
000060
0000E0
0001E0
0003E0
0007E0
000FE0
001FE0
003FE0
007FE0
00FFE0
01FFE0
03FFE0
07FFE0
0FFFE0
1FFFE0
3FFFE0
7FFFE0
FFFFE0
FFFFE0
7FFFE0
3FFFE0
1FFFE0
0FFFE0
07FFE0
03FFE0
01FFE0
00FFE0
007FE0
003FE0
001FE0
000FE0
0007E0
0003E0
0001E0
0000E0
000060
000020
000000
000000
ENDCHAR

STARTCHAR Code18
ENCODING 18
SWIDTH 451 0
DWIDTH 20 0
BBX 20 40 0 -6
BITMAP
004000
00E000
01F000
03F800
07FC00
0FFE00
1FFF00
1CE700
00E000
00E000
00E000
00E000
00E000
00E000
00E000
00E000
00E000
00E000
00E000
00E000
00E000
00E000
00E000
00E000
00E000
00E000
00E000
00E000
00E000
00E000
1CE700
1FFF00
0FFE00
07FC00
03F800
01F000
00E000
004000
000000
000000
ENDCHAR

STARTCHAR Code19
ENCODING 19
SWIDTH 451 0
DWIDTH 20 0
BBX 20 40 0 -6
BITMAP
000000
000000
000000
070E00
0F9F00
0F9F00
0F9F00
0F9F00
0F9F00
0F9F00
0F9F00
0F9F00
0F9F00
0F9F00
0F9F00
0F9F00
0F9F00
0F9F00
0F9F00
0F9F00
070E00
070E00
070E00
070E00
000000
000000
070E00
0F9F00
0F9F00
0F9F00
070E00
000000
000000
000000
000000
000000
000000
000000
000000
000000
ENDCHAR

STARTCHAR Code20
ENCODING 20
SWIDTH 451 0
DWIDTH 20 0
BBX 20 40 0 -6
BITMAP
000000
01FFF0
07FFF0
1FFFF0
3FFFF0
7F78F0
7C78F0
F878F0
F878F0
F078F0
F078F0
F878F0
F878F0
FC78F0
7F78F0
7FF8F0
3FF8F0
1FF8F0
07F8F0
0078F0
0078F0
0078F0
0078F0
0078F0
0078F0
0078F0
0078F0
0078F0
0078F0
0078F0
0078F0
0078F0
0078F0
0078F0
0078F0
0078F0
0078F0
000000
000000
000000
ENDCHAR

STARTCHAR Code21
ENCODING 21
SWIDTH 451 0
DWIDTH 20 0
BBX 20 40 0 -6
BITMAP
000000
000000
0000C0
07F8C0
1FFEC0
3FFFC0
3E07E0
7C01E0
7800E0
7000E0
78F860
7BFC60
7FFE00
3F9E00
1FCF00
0FFF00
0FFF00
0FFF00
0F7F00
079F80
07FFC0
03FBC0
61F3E0
6001E0
6001E0
7003E0
7003E0
7807C0
7E0FC0
7FFF80
67FF00
01FC00
000000
000000
000000
000000
000000
000000
000000
000000
ENDCHAR

STARTCHAR Code22
ENCODING 22
SWIDTH 451 0
DWIDTH 20 0
BBX 20 40 0 -6
BITMAP
000000
000000
000000
000000
000000
000000
000000
000000
000000
000000
000000
FFFFF0
FFFFF0
FFFFF0
FFFFF0
FFFFF0
FFFFF0
FFFFF0
FFFFF0
FFFFF0
FFFFF0
FFFFF0
FFFFF0
FFFFF0
FFFFF0
FFFFF0
FFFFF0
000000
000000
000000
000000
000000
000000
000000
000000
000000
000000
000000
000000
000000
ENDCHAR

STARTCHAR Code23
ENCODING 23
SWIDTH 451 0
DWIDTH 20 0
BBX 20 40 0 -6
BITMAP
000000
00E000
01F000
03F800
07FC00
0FFE00
1FFF00
1CE700
00E000
00E000
00E000
00E000
00E000
00E000
00E000
00E000
00E000
00E000
00E000
00E000
00E000
00E000
00E000
00E000
00E000
00E000
00E000
1CE700
1FFF00
0FFE00
07FC00
03F800
01F000
00E000
FFFFF0
FFFFF0
FFFFF0
000000
000000
000000
ENDCHAR

STARTCHAR Code24
ENCODING 24
SWIDTH 451 0
DWIDTH 20 0
BBX 20 40 0 -6
BITMAP
004000
00E000
01F000
03F800
07FC00
0FFE00
1FFF00
1CE700
00E000
00E000
00E000
00E000
00E000
00E000
00E000
00E000
00E000
00E000
00E000
00E000
00E000
00E000
00E000
00E000
00E000
00E000
00E000
00E000
00E000
00E000
00E000
00E000
00E000
00E000
00E000
00E000
00E000
000000
000000
000000
ENDCHAR

STARTCHAR Code25
ENCODING 25
SWIDTH 451 0
DWIDTH 20 0
BBX 20 40 0 -6
BITMAP
000000
00E000
00E000
00E000
00E000
00E000
00E000
00E000
00E000
00E000
00E000
00E000
00E000
00E000
00E000
00E000
00E000
00E000
00E000
00E000
00E000
00E000
00E000
00E000
00E000
00E000
00E000
00E000
00E000
00E000
1CE700
1FFF00
0FFE00
07FC00
03F800
01F000
00E000
004000
000000
000000
ENDCHAR

STARTCHAR Code26
ENCODING 26
SWIDTH 451 0
DWIDTH 20 0
BBX 20 40 0 -6
BITMAP
000000
000000
000000
000000
000000
000000
000000
000000
000000
000000
000000
000000
000C00
000E00
000F00
000780
0007C0
FFFFE0
FFFFF0
FFFFE0
0007C0
000780
000F00
000E00
000C00
000000
000000
000000
000000
000000
000000
000000
000000
000000
000000
000000
000000
000000
000000
000000
ENDCHAR

STARTCHAR Code27
ENCODING 27
SWIDTH 451 0
DWIDTH 20 0
BBX 20 40 0 -6
BITMAP
000000
000000
000000
000000
000000
000000
000000
000000
000000
000000
000000
000000
030000
070000
0F0000
1E0000
3E0000
7FFFF0
FFFFF0
7FFFF0
3E0000
1E0000
0F0000
070000
030000
000000
000000
000000
000000
000000
000000
000000
000000
000000
000000
000000
000000
000000
000000
000000
ENDCHAR

STARTCHAR Code28
ENCODING 28
SWIDTH 451 0
DWIDTH 20 0
BBX 20 40 0 -6
BITMAP
000000
000000
000000
000000
000000
000000
000000
000000
000000
E00000
E00000
E00000
E00000
E00000
E00000
E00000
E00000
E00000
E00000
E00000
E00000
E00000
E00000
E00000
E00000
E00000
E00000
FFFFF0
FFFFF0
FFFFF0
000000
000000
000000
000000
000000
000000
000000
000000
000000
000000
ENDCHAR

STARTCHAR Code29
ENCODING 29
SWIDTH 451 0
DWIDTH 20 0
BBX 20 40 0 -6
BITMAP
000000
000000
000000
000000
000000
000000
000000
000000
000000
000000
000000
000000
060600
0E0700
1E0780
3C03C0
7C03E0
FFFFF0
FFFFF0
FFFFF0
7C03E0
3C03C0
1E0780
0E0700
060600
000000
000000
000000
000000
000000
000000
000000
000000
000000
000000
000000
000000
000000
000000
000000
ENDCHAR

STARTCHAR Code30
ENCODING 30
SWIDTH 451 0
DWIDTH 20 0
BBX 20 40 0 -6
BITMAP
000000
000000
000000
000000
000000
000000
006000
006000
00F000
00F000
00F000
01F800
01F800
03FC00
03FC00
03FC00
07FE00
07FE00
0FFF00
0FFF00
0FFF00
1FFF80
1FFF80
3FFFC0
3FFFC0
3FFFC0
7FFFE0
7FFFE0
FFFFF0
FFFFF0
000000
000000
000000
000000
000000
000000
000000
000000
000000
000000
ENDCHAR

STARTCHAR Code31
ENCODING 31
SWIDTH 451 0
DWIDTH 20 0
BBX 20 40 0 -6
BITMAP
000000
000000
000000
000000
000000
000000
FFFFF0
FFFFF0
7FFFE0
7FFFE0
3FFFC0
3FFFC0
3FFFC0
1FFF80
1FFF80
0FFF00
0FFF00
0FFF00
07FE00
07FE00
03FC00
03FC00
03FC00
01F800
01F800
00F000
00F000
00F000
006000
006000
000000
000000
000000
000000
000000
000000
000000
000000
000000
000000
ENDCHAR

STARTCHAR Code32
ENCODING 32
SWIDTH 451 0
DWIDTH 20 0
BBX 20 40 0 -6
BITMAP
000000
000000
000000
000000
000000
000000
000000
000000
000000
000000
000000
000000
000000
000000
000000
000000
000000
000000
000000
000000
000000
000000
000000
000000
000000
000000
000000
000000
000000
000000
000000
000000
000000
000000
000000
000000
000000
000000
000000
000000
ENDCHAR

STARTCHAR Code33
ENCODING 33
SWIDTH 451 0
DWIDTH 20 0
BBX 20 40 0 -6
BITMAP
000000
000000
000000
000000
000E00
000E00
001E00
001E00
001E00
003C00
003C00
003C00
007800
007800
007800
00F000
00F000
00F000
01E000
01E000
01E000
01C000
03C000
03C000
038000
038000
038000
038000
000000
0E0000
0E0000
0E0000
0E0000
0E0000
000000
000000
000000
000000
000000
000000
ENDCHAR

STARTCHAR Code34
ENCODING 34
SWIDTH 451 0
DWIDTH 20 0
BBX 20 40 0 -6
BITMAP
000000
000000
000000
01CE00
01CE00
01CE00
01CE00
03DE00
03DE00
07BC00
07BC00
073800
073800
000000
000000
000000
000000
000000
000000
000000
000000
000000
000000
000000
000000
000000
000000
000000
000000
000000
000000
000000
000000
000000
000000
000000
000000
000000
000000
000000
ENDCHAR

STARTCHAR Code35
ENCODING 35
SWIDTH 451 0
DWIDTH 20 0
BBX 20 40 0 -6
BITMAP
000000
000000
000000
000000
000000
000000
000000
000000
000000
000000
00EE00
00EE00
00EE00
01FE00
01DC00
01DC00
01DC00
7FFC00
7FFFF0
7FFFF0
03BFF0
FFF800
FFFFE0
FFFFE0
03BFE0
03B800
03B800
03FC00
01DC00
01DC00
01DC00
01DC00
000000
000000
000000
000000
000000
000000
000000
000000
ENDCHAR

STARTCHAR Code36
ENCODING 36
SWIDTH 451 0
DWIDTH 20 0
BBX 20 40 0 -6
BITMAP
000000
000000
000000
000000
000000
000000
000000
000000
000E00
000E00
007F80
01FFC0
03FDE0
03FCE0
07B9E0
073BC0
077FC0
07FF80
07FE00
03F000
03E000
01F000
00F800
1DFC00
3DFC00
79DE00
73CE00
738E00
7B9E00
7FBE00
3FFC00
1FF800
07E000
070000
070000
000000
000000
000000
000000
000000
ENDCHAR

STARTCHAR Code37
ENCODING 37
SWIDTH 451 0
DWIDTH 20 0
BBX 20 40 0 -6
BITMAP
000000
000000
000000
000000
000000
000000
000000
0001C0
0E03C0
1F03C0
3F0780
3B8780
738F00
738E00
639E00
639C00
67BC00
673800
7F7800
7E7380
3CF7C0
00EFC0
01EEE0
01DCE0
03DCE0
03D8E0
0798E0
0799E0
0719C0
0F1FC0
0F1F80
0E0F00
0E0000
000000
000000
000000
000000
000000
000000
000000
ENDCHAR

STARTCHAR Code38
ENCODING 38
SWIDTH 451 0
DWIDTH 20 0
BBX 20 40 0 -6
BITMAP
000000
000000
000000
000000
000000
000000
07E000
0FF000
1FF000
1E7000
1C7000
1CF000
1CF000
1FE000
1FE000
0FC000
1F8000
3F7FE0
3FFFE0
7FFFE0
7BCE00
73CE00
71EE00
71EE00
70FE00
70FC00
707C00
787C00
3C7C00
3FFEE0
1FFFE0
07EFE0
0007C0
000000
000000
000000
000000
000000
000000
000000
ENDCHAR

STARTCHAR Code39
ENCODING 39
SWIDTH 451 0
DWIDTH 20 0
BBX 20 40 0 -6
BITMAP
000000
000000
000000
003800
003800
003800
003800
007800
007800
00F000
00F000
01E000
01C000
000000
000000
000000
000000
000000
000000
000000
000000
000000
000000
000000
000000
000000
000000
000000
000000
000000
000000
000000
000000
000000
000000
000000
000000
000000
000000
000000
ENDCHAR

STARTCHAR Code40
ENCODING 40
SWIDTH 451 0
DWIDTH 20 0
BBX 20 40 0 -6
BITMAP
000000
000180
000380
000780
000F00
001F00
001E00
003C00
007C00
007800
00F000
00F000
01E000
01E000
01C000
03C000
03C000
038000
038000
078000
078000
070000
070000
070000
070000
070000
070000
070000
070000
070000
070000
078000
078000
038000
038000
038000
03C000
01C000
00C000
000000
ENDCHAR

STARTCHAR Code41
ENCODING 41
SWIDTH 451 0
DWIDTH 20 0
BBX 20 40 0 -6
BITMAP
00C000
00E000
00F000
007000
007000
007000
007800
007800
003800
003800
003800
003800
003800
003800
003800
003800
003800
003800
007800
007800
007000
007000
00F000
00F000
00E000
01E000
01E000
03C000
03C000
078000
0F8000
0F0000
1E0000
3E0000
3C0000
780000
700000
600000
000000
000000
ENDCHAR

STARTCHAR Code42
ENCODING 42
SWIDTH 451 0
DWIDTH 20 0
BBX 20 40 0 -6
BITMAP
000000
000000
000000
000000
000000
000000
000000
000000
000000
000000
000000
000000
000000
007000
007000
077000
07F000
07F700
03FF00
01FF00
03FC00
07F800
0FFC00
0F3C00
0E1C00
000000
000000
000000
000000
000000
000000
000000
000000
000000
000000
000000
000000
000000
000000
000000
ENDCHAR

STARTCHAR Code43
ENCODING 43
SWIDTH 451 0
DWIDTH 20 0
BBX 20 40 0 -6
BITMAP
000000
000000
000000
000000
000000
000000
000000
000000
000000
000000
000000
007000
007000
007000
007000
00F000
00E000
0FFF00
3FFFC0
3FFFC0
38E1C0
00E000
00E000
00F000
007000
007000
007000
000000
000000
000000
000000
000000
000000
000000
000000
000000
000000
000000
000000
000000
ENDCHAR

STARTCHAR Code44
ENCODING 44
SWIDTH 451 0
DWIDTH 20 0
BBX 20 40 0 -6
BITMAP
000000
000000
000000
000000
000000
000000
000000
000000
000000
000000
000000
000000
000000
000000
000000
000000
000000
000000
000000
000000
000000
000000
000000
000000
000000
000000
000000
000000
000000
070000
070000
070000
070000
070000
0F0000
0F0000
1E0000
1E0000
1C0000
000000
ENDCHAR

STARTCHAR Code45
ENCODING 45
SWIDTH 451 0
DWIDTH 20 0
BBX 20 40 0 -6
BITMAP
000000
000000
000000
000000
000000
000000
000000
000000
000000
000000
000000
000000
000000
000000
000000
000000
000000
03FE00
1FFF80
1FFF80
1E0380
000000
000000
000000
000000
000000
000000
000000
000000
000000
000000
000000
000000
000000
000000
000000
000000
000000
000000
000000
ENDCHAR

STARTCHAR Code46
ENCODING 46
SWIDTH 451 0
DWIDTH 20 0
BBX 20 40 0 -6
BITMAP
000000
000000
000000
000000
000000
000000
000000
000000
000000
000000
000000
000000
000000
000000
000000
000000
000000
000000
000000
000000
000000
000000
000000
000000
000000
000000
000000
000000
000000
180000
3C0000
7C0000
7C0000
380000
000000
000000
000000
000000
000000
000000
ENDCHAR

STARTCHAR Code47
ENCODING 47
SWIDTH 451 0
DWIDTH 20 0
BBX 20 40 0 -6
BITMAP
000000
000000
000000
000000
0001C0
0003C0
0003C0
0007C0
000780
000F80
000F00
001F00
001E00
003C00
003C00
007800
007800
00F000
00F000
01E000
01E000
03C000
03C000
078000
078000
0F0000
0F0000
1F0000
1E0000
3E0000
3C0000
3C0000
780000
780000
780000
700000
000000
000000
000000
000000
ENDCHAR

STARTCHAR Code48
ENCODING 48
SWIDTH 451 0
DWIDTH 20 0
BBX 20 40 0 -6
BITMAP
000000
000000
000000
000000
000000
000000
000000
000000
000000
000000
007000
00F800
01FC00
01FE00
03DF00
078F00
078700
0F0700
0E0700
0E0700
1E0700
1E0700
1E0700
1C0700
1C0F00
1E0E00
1E1E00
0E1C00
0F3C00
0FF800
07F000
03E000
000000
000000
000000
000000
000000
000000
000000
000000
ENDCHAR

STARTCHAR Code49
ENCODING 49
SWIDTH 451 0
DWIDTH 20 0
BBX 20 40 0 -6
BITMAP
000000
000000
000000
000000
000000
000000
000000
000000
000000
000000
001C00
003C00
007C00
01FC00
07FC00
07F800
03F800
007800
007000
00F000
00F000
00E000
00E000
01E000
01E000
01C000
01C000
01C000
01C000
01C000
01C000
000000
000000
000000
000000
000000
000000
000000
000000
000000
ENDCHAR

STARTCHAR Code50
ENCODING 50
SWIDTH 451 0
DWIDTH 20 0
BBX 20 40 0 -6
BITMAP
000000
000000
000000
000000
000000
000000
000000
000000
000000
000000
000000
007800
01FE00
03FF00
07CF00
078700
070F00
000F00
001E00
003E00
007C00
00F800
01F000
03E000
07C000
0F8000
1F0000
1E7E00
3FFE00
3FFE00
3FC000
3C0000
000000
000000
000000
000000
000000
000000
000000
000000
ENDCHAR

STARTCHAR Code51
ENCODING 51
SWIDTH 451 0
DWIDTH 20 0
BBX 20 40 0 -6
BITMAP
000000
000000
000000
000000
000000
000000
000000
000000
000000
000000
000000
03F000
0FF800
0FFC00
0E3C00
001C00
003C00
01FC00
03F800
03F800
037C00
001E00
001E00
000E00
000E00
1C0E00
1C0E00
1C1E00
1E3C00
1FFC00
0FF800
03E000
000000
000000
000000
000000
000000
000000
000000
000000
ENDCHAR

STARTCHAR Code52
ENCODING 52
SWIDTH 451 0
DWIDTH 20 0
BBX 20 40 0 -6
BITMAP
000000
000000
000000
000000
000000
000000
000000
000000
000000
000700
000F00
001F00
003F00
007F00
00FF00
01EE00
01DE00
03DE00
079C00
0F3C00
0F3F80
1FFF80
1FFF80
1FF800
0E3800
003800
007800
007000
007000
007000
007000
007000
000000
000000
000000
000000
000000
000000
000000
000000
ENDCHAR

STARTCHAR Code53
ENCODING 53
SWIDTH 451 0
DWIDTH 20 0
BBX 20 40 0 -6
BITMAP
000000
000000
000000
000000
000000
000000
000000
000000
000000
000000
000000
03FF00
03FF00
03FF00
03C000
078000
078000
0FF800
0FFC00
0FFE00
079E00
000E00
000E00
000E00
1C0E00
1C1E00
1C1E00
1C3C00
1E7C00
1FF800
0FF000
07E000
000000
000000
000000
000000
000000
000000
000000
000000
ENDCHAR

STARTCHAR Code54
ENCODING 54
SWIDTH 451 0
DWIDTH 20 0
BBX 20 40 0 -6
BITMAP
000000
000000
000000
000000
000000
000000
000000
000000
000000
000000
000000
001C00
003C00
00FC00
01F800
03F000
03E000
07C000
0FFC00
0FFE00
1FFF00
1F0F00
1E0700
1C0700
1C0700
1C0700
1E0F00
1E0F00
0F1E00
0FFE00
07FC00
01F000
000000
000000
000000
000000
000000
000000
000000
000000
ENDCHAR

STARTCHAR Code55
ENCODING 55
SWIDTH 451 0
DWIDTH 20 0
BBX 20 40 0 -6
BITMAP
000000
000000
000000
000000
000000
000000
000000
000000
000000
000000
000000
007F00
0FFF00
0FFF00
0FCF00
001E00
001E00
003C00
003C00
007800
007000
00F000
00F000
01E000
01E000
01C000
03C000
03C000
038000
038000
038000
038000
000000
000000
000000
000000
000000
000000
000000
000000
ENDCHAR

STARTCHAR Code56
ENCODING 56
SWIDTH 451 0
DWIDTH 20 0
BBX 20 40 0 -6
BITMAP
000000
000000
000000
000000
000000
000000
000000
000000
000000
000000
01FC00
03FE00
07FE00
078E00
078E00
079E00
03FE00
03FC00
01F800
03FC00
07FC00
0F9E00
0F0E00
1E0E00
1E0E00
1C0E00
1C0E00
1E1E00
0F3C00
0FFC00
07F800
01E000
000000
000000
000000
000000
000000
000000
000000
000000
ENDCHAR

STARTCHAR Code57
ENCODING 57
SWIDTH 451 0
DWIDTH 20 0
BBX 20 40 0 -6
BITMAP
000000
000000
000000
000000
000000
000000
000000
000000
000000
000000
00FC00
03FE00
07FF00
0F8F00
0F0700
1E0700
1E0700
1C0700
1E0700
1E0F00
0F3F00
0FFF00
07FF00
03EE00
001E00
001C00
003C00
003800
007800
00F000
01E000
01C000
000000
000000
000000
000000
000000
000000
000000
000000
ENDCHAR

STARTCHAR Code58
ENCODING 58
SWIDTH 451 0
DWIDTH 20 0
BBX 20 40 0 -6
BITMAP
000000
000000
000000
000000
000000
000000
000000
000000
000000
000000
000000
000000
000000
007000
007000
00F000
00F000
00E000
000000
000000
000000
000000
000000
00E000
00E000
01E000
01E000
01C000
000000
000000
000000
000000
000000
000000
000000
000000
000000
000000
000000
000000
ENDCHAR

STARTCHAR Code59
ENCODING 59
SWIDTH 451 0
DWIDTH 20 0
BBX 20 40 0 -6
BITMAP
000000
000000
000000
000000
000000
000000
000000
000000
000000
000000
000000
000000
000000
007000
007000
00F000
00F000
00E000
000000
000000
000000
000000
000000
00E000
00E000
00E000
00E000
00E000
01E000
01E000
03C000
03C000
038000
000000
000000
000000
000000
000000
000000
000000
ENDCHAR

STARTCHAR Code60
ENCODING 60
SWIDTH 451 0
DWIDTH 20 0
BBX 20 40 0 -6
BITMAP
000000
000000
000000
000000
000000
000000
000000
000000
000000
000E00
001E00
003E00
007C00
00F800
01F000
03E000
07C000
078000
0F0000
0F0000
0E0000
0F0000
0F0000
070000
078000
078000
038000
03C000
03C000
01E000
01E000
00F000
00F000
007800
007800
003800
000000
000000
000000
000000
ENDCHAR

STARTCHAR Code61
ENCODING 61
SWIDTH 451 0
DWIDTH 20 0
BBX 20 40 0 -6
BITMAP
000000
000000
000000
000000
000000
000000
000000
000000
000000
000000
000000
000000
000000
000000
000000
0FFF00
7FFFE0
7FFFE0
7801E0
000000
07FF00
7FFFE0
7FFFE0
7C01E0
000000
000000
000000
000000
000000
000000
000000
000000
000000
000000
000000
000000
000000
000000
000000
000000
ENDCHAR

STARTCHAR Code62
ENCODING 62
SWIDTH 451 0
DWIDTH 20 0
BBX 20 40 0 -6
BITMAP
000000
000000
000000
000000
000000
000000
000000
000000
000000
01C000
01E000
01E000
00F000
00F000
007000
007800
007800
003800
003C00
003C00
001C00
001E00
001E00
000E00
001E00
003E00
007C00
00F800
01F000
03E000
07C000
0F8000
1F0000
3E0000
3C0000
380000
000000
000000
000000
000000
ENDCHAR

STARTCHAR Code63
ENCODING 63
SWIDTH 451 0
DWIDTH 20 0
BBX 20 40 0 -6
BITMAP
000000
000000
000000
000000
00F800
03FE00
07FF00
0FCF00
1F0780
1E0380
1C0380
1C0780
000F80
001F00
007E00
00FC00
01F000
03E000
03C000
078000
078000
070000
070000
070000
070000
000000
000000
000000
000000
0E0000
1E0000
1E0000
1E0000
1C0000
000000
000000
000000
000000
000000
000000
ENDCHAR

STARTCHAR Code64
ENCODING 64
SWIDTH 451 0
DWIDTH 20 0
BBX 20 40 0 -6
BITMAP
000000
000000
000000
000000
00FE00
03FF80
07FFC0
0FC3C0
1F01E0
1E00E0
3C7CE0
3CFEE0
39FEE0
7BEEE0
73CEE0
779EE0
771CE0
771CE0
7F3CE0
7E38E0
7E79E0
7E79E0
7EF9C0
7FFBC0
7FFFC0
7FBF80
781F00
3C0000
3F0E00
1FFE00
0FFE00
03FC00
000000
000000
000000
000000
000000
000000
000000
000000
ENDCHAR

STARTCHAR Code65
ENCODING 65
SWIDTH 451 0
DWIDTH 20 0
BBX 20 40 0 -6
BITMAP
000000
000000
000000
0001C0
0003C0
0007C0
000FC0
001FC0
003FC0
003F80
007B80
00F380
00F380
01E380
01C380
03C380
0383F0
07BFF0
07FFF0
1FFF80
FFE380
FF0380
FF03C0
1E03C0
1E01C0
1C01C0
3C01C0
3C01C0
3801C0
7801C0
7801E0
7000E0
7000E0
000000
000000
000000
000000
000000
000000
000000
ENDCHAR

STARTCHAR Code66
ENCODING 66
SWIDTH 451 0
DWIDTH 20 0
BBX 20 40 0 -6
BITMAP
000000
000000
000000
000000
03FF00
0FFF80
3FFFC0
3FC3C0
3BC1C0
0381C0
0783C0
0787C0
071F80
0F7F00
0FFE00
0FF800
1FFC00
1E7E00
1E1F00
1C0F00
3C0780
3C0780
3C0380
380380
380380
780380
780780
780780
700F00
7C3F00
7FFE00
7FFC00
77F000
000000
000000
000000
000000
000000
000000
000000
ENDCHAR

STARTCHAR Code67
ENCODING 67
SWIDTH 451 0
DWIDTH 20 0
BBX 20 40 0 -6
BITMAP
000000
000000
000000
000000
001F00
007F80
00FBC0
01F1C0
01E1C0
03C1C0
07C1C0
0783C0
0F03C0
0F0780
0E0F80
1E0F00
1C0E00
1C0000
3C0000
3C0000
380000
380000
380180
380180
380180
380380
380380
3C0700
3C0F00
1E3E00
1FFC00
0FF800
07E000
000000
000000
000000
000000
000000
000000
000000
ENDCHAR

STARTCHAR Code68
ENCODING 68
SWIDTH 451 0
DWIDTH 20 0
BBX 20 40 0 -6
BITMAP
000000
000000
000000
000000
01F800
07FE00
1FFF00
3F8780
3F03C0
3701C0
0701E0
0F00E0
0E00E0
0E00E0
0E00E0
1E00E0
1C00E0
1C01E0
1C01E0
1C01C0
3C03C0
3803C0
380780
380780
380F00
780F00
701E00
703E00
707C00
71F800
7FF000
7FE000
3F8000
000000
000000
000000
000000
000000
000000
000000
ENDCHAR

STARTCHAR Code69
ENCODING 69
SWIDTH 451 0
DWIDTH 20 0
BBX 20 40 0 -6
BITMAP
000000
000000
000000
000FF0
07FFF0
07FFF0
07F800
03C000
038000
078000
0F0000
0F0000
0E0000
1E0000
1E7E00
1FFE00
1FFE00
3FC000
3C0000
380000
380000
380000
380000
780000
700000
700000
70FE00
77FE00
7FFE00
7FC000
7E0000
380000
000000
000000
000000
000000
000000
000000
000000
000000
ENDCHAR

STARTCHAR Code70
ENCODING 70
SWIDTH 451 0
DWIDTH 20 0
BBX 20 40 0 -6
BITMAP
000000
000000
000000
0007F0
00FFF0
07FFF0
07FE00
07E000
03C000
078000
078000
070000
070000
0F0000
0E7E00
0FFE00
1FFE00
1FC000
1C0000
1C0000
1C0000
3C0000
380000
380000
380000
380000
780000
700000
700000
700000
700000
700000
000000
000000
000000
000000
000000
000000
000000
000000
ENDCHAR

STARTCHAR Code71
ENCODING 71
SWIDTH 451 0
DWIDTH 20 0
BBX 20 40 0 -6
BITMAP
000000
000000
000000
003E00
00FF00
01FF80
03F380
07C1C0
0781C0
0F03C0
1F03C0
1E0380
1C0780
3C0F00
380F00
380E00
780000
700000
700F80
707FC0
707FC0
707BC0
7003C0
7007C0
780F80
7C1F80
3C7F80
3FFF80
1FFF80
07E700
000700
000700
000700
000700
000700
000000
000000
000000
000000
000000
ENDCHAR

STARTCHAR Code72
ENCODING 72
SWIDTH 451 0
DWIDTH 20 0
BBX 20 40 0 -6
BITMAP
000000
000000
01C000
01C070
03C070
03C070
03C0F0
0380F0
0780E0
0781E0
0781E0
0701C0
0F03C0
0F03C0
0F0380
0E0FF0
1E7FF0
1FFFF0
1FFF80
FFEF00
FF0F00
FC0E00
3C0E00
380E00
381E00
381E00
781C00
781C00
701C00
701C00
701C00
701C00
701C00
700000
000000
000000
000000
000000
000000
000000
ENDCHAR

STARTCHAR Code73
ENCODING 73
SWIDTH 451 0
DWIDTH 20 0
BBX 20 40 0 -6
BITMAP
000000
000000
000000
000000
000700
000F00
000F00
001F00
001E00
001E00
003C00
003C00
003800
007800
007800
007000
007000
00F000
00E000
00E000
01E000
01E000
01C000
01C000
01C000
03C000
03C000
038000
038000
038000
038000
038000
000000
000000
000000
000000
000000
000000
000000
000000
ENDCHAR

STARTCHAR Code74
ENCODING 74
SWIDTH 451 0
DWIDTH 20 0
BBX 20 40 0 -6
BITMAP
000000
000000
000000
000000
0007F0
01FFF0
01FFF0
01FF80
000780
000700
000700
000F00
000F00
000E00
1C0E00
3C0E00
780E00
781E00
F01E00
F01C00
E01C00
E03C00
E03C00
E03800
E03800
E07800
F07800
F0F000
79F000
7FE000
3FC000
1F0000
000000
000000
000000
000000
000000
000000
000000
000000
ENDCHAR

STARTCHAR Code75
ENCODING 75
SWIDTH 451 0
DWIDTH 20 0
BBX 20 40 0 -6
BITMAP
000000
000000
000000
038000
038000
038070
0381F0
0787F0
078FE0
07BF80
077E00
0FFC00
0FF800
0FE000
1FC000
1F8000
1FC000
3FC000
3DC000
3DC000
79C000
79C000
79C000
71C180
F1E180
F1E380
F0E380
E0E780
E0FF00
E07F00
E07E00
E03C00
E00000
000000
000000
000000
000000
000000
000000
000000
ENDCHAR

STARTCHAR Code76
ENCODING 76
SWIDTH 451 0
DWIDTH 20 0
BBX 20 40 0 -6
BITMAP
000000
000000
000000
000000
000E00
000E00
001E00
001E00
003C00
003C00
007800
007800
00F000
00F000
01E000
01E000
01C000
03C000
038000
038000
078000
078000
070000
070000
0F0000
0E0000
0E0000
0E7F00
0FFF00
0FFF00
0FE000
078000
000000
000000
000000
000000
000000
000000
000000
000000
ENDCHAR

STARTCHAR Code77
ENCODING 77
SWIDTH 451 0
DWIDTH 20 0
BBX 20 40 0 -6
BITMAP
000000
000000
000000
01C0E0
03E1F0
03E1F0
07E3F0
07E3F0
0FE3F0
0FC7F0
0FC7F0
1FC7E0
1FCFE0
1FCEE0
3FCFE0
3B9FE0
3B9DE0
7B9DC0
7BBDC0
7BB9C0
73B9C0
73F9C0
F3F1C0
F3F1C0
F1F1C0
F1F1C0
E1E1C0
E0E1C0
E001C0
E001C0
E001C0
E001C0
E001C0
E00000
000000
000000
000000
000000
000000
000000
ENDCHAR

STARTCHAR Code78
ENCODING 78
SWIDTH 451 0
DWIDTH 20 0
BBX 20 40 0 -6
BITMAP
000000
000000
000000
000070
01C070
01C070
03C0F0
03C0E0
07C0E0
07C1E0
07C1C0
0FC1C0
0FC3C0
0FC380
1DC380
1DC380
1DC780
39E700
38E700
38E700
78E700
70EF00
70EF00
70EE00
70FE00
F07E00
E07E00
E07E00
E07E00
E03E00
E03E00
E03C00
E01C00
000000
000000
000000
000000
000000
000000
000000
ENDCHAR

STARTCHAR Code79
ENCODING 79
SWIDTH 451 0
DWIDTH 20 0
BBX 20 40 0 -6
BITMAP
000000
000000
000000
000000
03FE00
0FFF80
0FFFC0
0EF3C0
01E1E0
03C0E0
0380E0
0780E0
0700E0
0F00E0
0E00E0
1E01E0
1C01C0
1C01C0
3C03C0
3803C0
380380
380780
780780
700F00
700F00
701E00
701E00
783C00
787C00
3DF800
3FF000
1FE000
0F8000
000000
000000
000000
000000
000000
000000
000000
ENDCHAR

STARTCHAR Code80
ENCODING 80
SWIDTH 451 0
DWIDTH 20 0
BBX 20 40 0 -6
BITMAP
000000
000000
000000
000000
03BE00
03FF80
07FFC0
0FF3C0
1F81E0
1F00E0
1F00E0
0700E0
0701E0
0F01E0
0E01C0
0E03C0
0E0780
0E1F80
3FFF00
3FFE00
1FF800
1C0000
3C0000
3C0000
380000
380000
380000
380000
780000
700000
700000
700000
700000
000000
000000
000000
000000
000000
000000
000000
ENDCHAR

STARTCHAR Code81
ENCODING 81
SWIDTH 451 0
DWIDTH 20 0
BBX 20 40 0 -6
BITMAP
000000
000000
000000
000000
03FC00
0FFF00
0FFF80
0FE780
03C3C0
0381C0
0781C0
0701C0
0F01C0
0E01C0
1E01C0
1C01C0
3C01C0
3803C0
3803C0
380380
780780
700780
700F00
7F8F00
7FDE00
7FFE00
71FC00
70F800
78F000
7FF800
3FF800
1FFC00
0F3C00
001E60
001FE0
000FE0
0007C0
000000
000000
000000
ENDCHAR

STARTCHAR Code82
ENCODING 82
SWIDTH 451 0
DWIDTH 20 0
BBX 20 40 0 -6
BITMAP
000000
000000
000000
018000
03FE00
03FF80
0FFFC0
1FC3C0
1F81E0
1F80E0
0780E0
0700E0
0701E0
0F01E0
0E03C0
0E0FC0
3E7F80
3FFF00
3FFC00
1FE000
3E0000
3F0000
3F8000
3F8000
3BC000
79E000
78F000
70F800
707800
703C00
703E00
701E00
700E00
000000
000000
000000
000000
000000
000000
000000
ENDCHAR

STARTCHAR Code83
ENCODING 83
SWIDTH 451 0
DWIDTH 20 0
BBX 20 40 0 -6
BITMAP
000000
000000
000000
000000
003FC0
007FE0
00FFE0
01FCE0
03E0E0
07C1E0
0781E0
0703C0
0707C0
071F80
073F00
073C00
078000
03C000
03E000
01F000
00F800
007C00
1C3C00
3C1E00
7C1E00
780F00
700F00
780F00
3C1F00
3FFE00
1FFE00
0FF800
000000
000000
000000
000000
000000
000000
000000
000000
ENDCHAR

STARTCHAR Code84
ENCODING 84
SWIDTH 451 0
DWIDTH 20 0
BBX 20 40 0 -6
BITMAP
000000
000000
000000
000000
00FFF0
0FFFF0
7FFFF0
7FE000
7CE000
01E000
01C000
03C000
03C000
03C000
038000
078000
078000
078000
0F0000
0F0000
0F0000
0E0000
1E0000
1E0000
1C0000
1C0000
1C0000
3C0000
3C0000
380000
380000
380000
180000
000000
000000
000000
000000
000000
000000
000000
ENDCHAR

STARTCHAR Code85
ENCODING 85
SWIDTH 451 0
DWIDTH 20 0
BBX 20 40 0 -6
BITMAP
000000
000000
000000
000000
01C070
03E070
07E0F0
07C0F0
0F81F0
0F03E0
1F03E0
1E07E0
3C07C0
3C0FC0
380FC0
781F80
781F80
703F80
F03F80
F07F80
F07F00
E0F700
E0F700
E1E700
E1E700
E3C700
E3C700
E78F00
E78F00
FF0700
FF0700
7E0700
380300
000000
000000
000000
000000
000000
000000
000000
ENDCHAR

STARTCHAR Code86
ENCODING 86
SWIDTH 451 0
DWIDTH 20 0
BBX 20 40 0 -6
BITMAP
000000
000000
000000
000000
1C00C0
1C01E0
1C01E0
1C03C0
3C03C0
3C0780
3C0780
3C0F00
3C0F00
3C1F00
3C1E00
381E00
383C00
383C00
383800
387800
387800
387000
38F000
38F000
38E000
3DE000
3DE000
3DC000
1FC000
1FC000
1F8000
1F8000
0F8000
070000
000000
000000
000000
000000
000000
000000
ENDCHAR

STARTCHAR Code87
ENCODING 87
SWIDTH 451 0
DWIDTH 20 0
BBX 20 40 0 -6
BITMAP
000000
000000
000000
000070
3800F0
3800F0
7801F0
7801E0
7801E0
7803C0
7803C0
7803C0
780380
70E380
71E780
F1E780
F1E700
F3C700
F3C700
E3C700
E7C700
E7CF00
E7CF00
EFCF00
EFCE00
EFEE00
FFEE00
FFFE00
FCFE00
FCFE00
FCFC00
F87C00
F87800
700000
000000
000000
000000
000000
000000
000000
ENDCHAR

STARTCHAR Code88
ENCODING 88
SWIDTH 451 0
DWIDTH 20 0
BBX 20 40 0 -6
BITMAP
000000
000000
000000
1C0070
1E00F0
0E01F0
0F03F0
0703E0
0787C0
078F80
039F00
03DF00
03FE00
01FC00
01F800
01F800
01F000
01F000
03F000
07F000
07F800
0FF800
0F3800
1F3C00
1E1C00
3C1C00
3C1E00
780E00
780F00
F00F00
F00780
E00780
E003C0
0003C0
0003C0
000000
000000
000000
000000
000000
ENDCHAR

STARTCHAR Code89
ENCODING 89
SWIDTH 451 0
DWIDTH 20 0
BBX 20 40 0 -6
BITMAP
000000
000000
000000
0000E0
01C1E0
03C1E0
07C3E0
0FC3C0
1F07C0
1E0780
3E0F80
3C0F80
381F00
783F00
783E00
707E00
70FC00
70FC00
71F800
73F800
7FF800
7F7000
7FF000
3CF000
00E000
00E000
01E000
01E000
01E000
01C000
01C000
01C000
01C000
01C000
000000
000000
000000
000000
000000
000000
ENDCHAR

STARTCHAR Code90
ENCODING 90
SWIDTH 451 0
DWIDTH 20 0
BBX 20 40 0 -6
BITMAP
000000
000000
000000
003FF0
1FFFF0
1FFFF0
1FE3E0
0007C0
000F80
001F00
001E00
003C00
007C00
00F800
00F000
01E000
03E000
03C000
078000
0F8000
0F0000
1F0000
1E0000
3C0000
3C0000
780000
781F00
F0FF00
F7FF00
FFF000
FF8000
7C0000
000000
000000
000000
000000
000000
000000
000000
000000
ENDCHAR

STARTCHAR Code91
ENCODING 91
SWIDTH 451 0
DWIDTH 20 0
BBX 20 40 0 -6
BITMAP
000000
000000
001FC0
003FC0
007FC0
007800
007000
007000
007000
00F000
00E000
00E000
00E000
00E000
00E000
00E000
01E000
01C000
01C000
01C000
01C000
01C000
01C000
01C000
01C000
03C000
038000
038000
038000
038000
038000
038000
039E00
03FE00
03FE00
03F800
03E000
01C000
000000
000000
ENDCHAR

STARTCHAR Code92
ENCODING 92
SWIDTH 451 0
DWIDTH 20 0
BBX 20 40 0 -6
BITMAP
000000
000000
000000
000000
000000
000070
0E0070
0E00F0
0E00E0
0E01E0
0E01C0
0E01C0
0FFFF0
7FFFF0
7FFFF0
7EF780
1CF780
1DF700
1DE700
3DFF00
FFFFE0
FFFFE0
FFEFE0
3FEE00
3FFE00
3F7E00
3F7E00
3F7E00
3F7E00
3E7E00
3E3C00
1E1C00
0C0000
000000
000000
000000
000000
000000
000000
000000
ENDCHAR

STARTCHAR Code93
ENCODING 93
SWIDTH 451 0
DWIDTH 20 0
BBX 20 40 0 -6
BITMAP
000000
001C00
003C00
007C00
01FC00
07FC00
07DC00
071C00
001C00
001C00
001C00
001C00
001C00
001C00
001C00
001C00
001C00
001C00
001C00
003C00
003800
003800
003800
003800
003800
003800
007800
007000
007000
007000
007000
007000
00F000
00E000
07E000
3FE000
3FC000
3C0000
000000
000000
ENDCHAR

STARTCHAR Code94
ENCODING 94
SWIDTH 451 0
DWIDTH 20 0
BBX 20 40 0 -6
BITMAP
000000
000000
000000
00F800
03FC00
07FE00
079E00
070E00
000000
000000
000000
000000
000000
000000
000000
000000
000000
000000
000000
000000
000000
000000
000000
000000
000000
000000
000000
000000
000000
000000
000000
000000
000000
000000
000000
000000
000000
000000
000000
000000
ENDCHAR

STARTCHAR Code95
ENCODING 95
SWIDTH 451 0
DWIDTH 20 0
BBX 20 40 0 -6
BITMAP
000000
000000
000000
000000
000000
000000
000000
000000
000000
000000
000000
000000
000000
000000
000000
000000
000000
000000
000000
000000
000000
000000
000000
000000
000000
000000
000000
000000
000000
000000
000000
000000
000000
000000
000000
FFFFF0
FFFFF0
FFFFF0
000000
000000
ENDCHAR

STARTCHAR Code96
ENCODING 96
SWIDTH 451 0
DWIDTH 20 0
BBX 20 40 0 -6
BITMAP
000000
000000
000000
00E000
00E000
00F000
00F000
007800
007800
003C00
001C00
000000
000000
000000
000000
000000
000000
000000
000000
000000
000000
000000
000000
000000
000000
000000
000000
000000
000000
000000
000000
000000
000000
000000
000000
000000
000000
000000
000000
000000
ENDCHAR

STARTCHAR Code97
ENCODING 97
SWIDTH 451 0
DWIDTH 20 0
BBX 20 40 0 -6
BITMAP
000000
000000
000000
000000
000000
000000
000000
000000
000000
000000
000000
000000
000000
000000
000000
000000
000000
01F000
03F800
07F800
07B800
073800
0F3800
0E7800
0E7800
0E7000
0EF000
0EF000
0FF800
0FFC00
079E00
000E00
000000
000000
000000
000000
000000
000000
000000
000000
ENDCHAR

STARTCHAR Code98
ENCODING 98
SWIDTH 451 0
DWIDTH 20 0
BBX 20 40 0 -6
BITMAP
000000
000000
000000
000000
000000
003800
003800
007800
007800
007000
007000
00F000
00F000
00E000
00E000
00E000
01E000
01C000
01F800
01FC00
03FE00
03CE00
03CE00
038E00
078E00
071E00
071C00
073C00
0FF800
0FF800
0FF000
0FE000
000000
000000
000000
000000
000000
000000
000000
000000
ENDCHAR

STARTCHAR Code99
ENCODING 99
SWIDTH 451 0
DWIDTH 20 0
BBX 20 40 0 -6
BITMAP
000000
000000
000000
000000
000000
000000
000000
000000
000000
000000
000000
000000
000000
000000
000000
000000
000000
000000
01F000
03F800
07F800
07B800
0F3800
0F7E00
0E7600
0E0E00
0E0E00
0E1C00
0F3C00
0FF800
07F000
03E000
000000
000000
000000
000000
000000
000000
000000
000000
ENDCHAR

STARTCHAR Code100
ENCODING 100
SWIDTH 451 0
DWIDTH 20 0
BBX 20 40 0 -6
BITMAP
000000
000000
000000
000000
000000
000700
000700
000700
000F00
000F00
000E00
001E00
001E00
001C00
001C00
003C00
003C00
003800
03F800
07F800
0FF800
0F7000
1E7000
1E7000
1C7000
1CF000
1CF000
1DF800
1FF800
1FFC00
0F9E00
000E00
000000
000000
000000
000000
000000
000000
000000
000000
ENDCHAR

STARTCHAR Code101
ENCODING 101
SWIDTH 451 0
DWIDTH 20 0
BBX 20 40 0 -6
BITMAP
000000
000000
000000
000000
000000
000000
000000
000000
000000
000000
000000
000000
000000
000000
000000
000000
000000
000000
01E000
03F000
07F000
0F7000
0EF000
1FE000
1FE300
1FC700
1F1F00
1E3E00
1FFC00
0FF800
07E000
000000
000000
000000
000000
000000
000000
000000
000000
000000
ENDCHAR

STARTCHAR Code102
ENCODING 102
SWIDTH 451 0
DWIDTH 20 0
BBX 20 40 0 -6
BITMAP
000000
000000
000000
000000
000E00
000E00
001E00
001E00
003C00
003C00
007800
007000
00F000
00E000
00E000
01E000
01DF00
01FF00
03FF00
07F000
0FE000
0FF000
0FF000
077800
077800
0F3800
0E3800
0E3800
0E3800
0E3800
0E3800
0E3800
0E3800
0E7800
0E7000
0EF000
0FF000
0FE000
078000
000000
ENDCHAR

STARTCHAR Code103
ENCODING 103
SWIDTH 451 0
DWIDTH 20 0
BBX 20 40 0 -6
BITMAP
000000
000000
000000
000000
000000
000000
000000
000000
000000
000000
000000
000000
000000
000000
000000
000000
000000
01F000
03F800
07F800
07B800
0F3980
0F7B80
0E7380
0EF700
0FFF00
0FFE00
07FC00
01F800
07F000
0FE000
1EE000
3DE000
39C000
7BC000
73C000
778000
7F8000
7F0000
3E0000
ENDCHAR

STARTCHAR Code104
ENCODING 104
SWIDTH 451 0
DWIDTH 20 0
BBX 20 40 0 -6
BITMAP
000000
000000
000000
000000
000000
00E000
00E000
00E000
00E000
01E000
01C000
01C000
01C000
01C000
03C000
038000
038000
039C00
07BC00
077C00
07FC00
07F800
07F800
07FB00
0F7300
0F7700
0F7700
0E7E00
0E7E00
0E7C00
0E3800
0E0000
000000
000000
000000
000000
000000
000000
000000
000000
ENDCHAR

STARTCHAR Code105
ENCODING 105
SWIDTH 451 0
DWIDTH 20 0
BBX 20 40 0 -6
BITMAP
000000
000000
000000
000000
000000
000000
000000
000000
000000
000000
000000
001800
003C00
007C00
007C00
003800
000000
000000
007000
007000
00F000
00E000
01E000
01E000
01C000
01C000
03C000
03C000
038000
038000
038000
038000
000000
000000
000000
000000
000000
000000
000000
000000
ENDCHAR

STARTCHAR Code106
ENCODING 106
SWIDTH 451 0
DWIDTH 20 0
BBX 20 40 0 -6
BITMAP
000000
000000
000000
000000
000000
000000
000000
000000
000000
000000
000700
000F00
001F00
001F00
001E00
000000
000000
001C00
001C00
003C00
003800
003B00
007B00
007700
007F00
007E00
00FC00
01F800
03F000
0FE000
1FE000
3FE000
3DC000
79C000
73C000
73C000
7F8000
7F8000
3F0000
000000
ENDCHAR

STARTCHAR Code107
ENCODING 107
SWIDTH 451 0
DWIDTH 20 0
BBX 20 40 0 -6
BITMAP
000000
000000
000000
000000
001C00
003E00
007E00
00FE00
00FE00
01EE00
01DE00
039C00
03BC00
07B800
077800
07F000
0FE000
0FC000
0FB800
1FF800
1FF800
1FE000
1FC000
1F8180
3F8180
3F8380
3F8380
3FC700
39EF00
39FE00
38FC00
007800
000000
000000
000000
000000
000000
000000
000000
000000
ENDCHAR

STARTCHAR Code108
ENCODING 108
SWIDTH 451 0
DWIDTH 20 0
BBX 20 40 0 -6
BITMAP
000000
000000
000000
000000
000700
000F80
001F80
003F80
003B80
007B80
007700
00F700
00E700
00EE00
01EE00
01DE00
01DC00
01F800
03F800
03F000
03E000
03E000
03C000
079800
071800
073800
073800
077000
07F000
07E000
03C000
000000
000000
000000
000000
000000
000000
000000
000000
000000
ENDCHAR

STARTCHAR Code109
ENCODING 109
SWIDTH 451 0
DWIDTH 20 0
BBX 20 40 0 -6
BITMAP
000000
000000
000000
000000
000000
000000
000000
000000
000000
000000
000000
000000
000000
000000
000000
000000
000000
000000
0E0700
0EEF00
0FFF00
1FFF00
1FFE00
1FFE00
1FFC00
3FFC00
3BFC00
3BF800
3BBC00
3B9C00
3B9E00
380E00
000000
000000
000000
000000
000000
000000
000000
000000
ENDCHAR

STARTCHAR Code110
ENCODING 110
SWIDTH 451 0
DWIDTH 20 0
BBX 20 40 0 -6
BITMAP
000000
000000
000000
000000
000000
000000
000000
000000
000000
000000
000000
000000
000000
000000
000000
000000
000000
000000
003800
077800
07F800
07F800
0FF800
0FF000
0FF000
0FE000
1EE000
1EE000
1EE000
1CE000
1CF000
007800
007800
001800
000000
000000
000000
000000
000000
000000
ENDCHAR

STARTCHAR Code111
ENCODING 111
SWIDTH 451 0
DWIDTH 20 0
BBX 20 40 0 -6
BITMAP
000000
000000
000000
000000
000000
000000
000000
000000
000000
000000
000000
000000
000000
000000
000000
000000
000000
00F800
01FC00
03FC00
03DC00
039C00
079C00
071C00
071C00
073C00
073800
077800
07F800
07F000
03E000
000000
000000
000000
000000
000000
000000
000000
000000
000000
ENDCHAR

STARTCHAR Code112
ENCODING 112
SWIDTH 451 0
DWIDTH 20 0
BBX 20 40 0 -6
BITMAP
000000
000000
000000
000000
000000
000000
000000
000000
000000
000000
000000
000000
000000
000000
000000
01C000
01C000
03F800
03FC00
03FC00
07DC00
079C00
071C00
0F1C00
0F1C00
0E3C00
0E7800
0FF800
1FF000
1FE000
1C0000
1C0000
1C0000
3C0000
380000
380000
380000
380000
380000
380000
ENDCHAR

STARTCHAR Code113
ENCODING 113
SWIDTH 451 0
DWIDTH 20 0
BBX 20 40 0 -6
BITMAP
000000
000000
000000
000000
000000
000000
000000
000000
000000
000000
000000
000000
000000
000000
000000
000000
000000
00F800
01FC00
03FC00
079C00
07BC00
0F3C00
0E3C00
0E7800
0EF800
0FF800
0FF000
07F000
007000
007000
00F000
00E000
00E000
00E000
00E000
00E000
00E000
00E000
000000
ENDCHAR

STARTCHAR Code114
ENCODING 114
SWIDTH 451 0
DWIDTH 20 0
BBX 20 40 0 -6
BITMAP
000000
000000
000000
000000
000000
000000
000000
000000
000000
000000
000000
000000
000000
000000
000000
000000
000000
000000
03B800
03F800
07F800
07F300
0FFF00
0FFF00
0FBE00
0F0000
0E0000
1E0000
1E0000
1C0000
1C0000
1C0000
000000
000000
000000
000000
000000
000000
000000
000000
ENDCHAR

STARTCHAR Code115
ENCODING 115
SWIDTH 451 0
DWIDTH 20 0
BBX 20 40 0 -6
BITMAP
000000
000000
000000
000000
000000
000000
000000
000000
000000
000000
000000
000000
000000
000000
000000
000000
00FC00
01FE00
03FE00
03CE00
038E00
039E00
03FC00
03F800
0DE000
0CF000
0C7000
0E3800
0F3800
07F800
07F800
01E000
000000
000000
000000
000000
000000
000000
000000
000000
ENDCHAR

STARTCHAR Code116
ENCODING 116
SWIDTH 451 0
DWIDTH 20 0
BBX 20 40 0 -6
BITMAP
000000
000000
000000
000000
000000
000000
000000
000000
000000
000000
003800
003800
007800
007000
00FF00
00FF00
07FF00
07E000
07E000
01C000
01C000
03C000
038000
038600
038600
038E00
038E00
039C00
03FC00
03F800
01F000
000000
000000
000000
000000
000000
000000
000000
000000
000000
ENDCHAR

STARTCHAR Code117
ENCODING 117
SWIDTH 451 0
DWIDTH 20 0
BBX 20 40 0 -6
BITMAP
000000
000000
000000
000000
000000
000000
000000
000000
000000
000000
000000
000000
000000
000000
000000
000000
000000
000000
038000
03B800
07B800
073800
077800
0F7000
0E7000
0EF000
0EF000
0EF000
0FF800
0FFC00
079E00
000E00
000000
000000
000000
000000
000000
000000
000000
000000
ENDCHAR

STARTCHAR Code118
ENCODING 118
SWIDTH 451 0
DWIDTH 20 0
BBX 20 40 0 -6
BITMAP
000000
000000
000000
000000
000000
000000
000000
000000
000000
000000
000000
000000
000000
000000
000000
000000
000000
000000
03B800
03F800
03F800
07F800
07FB80
073F80
0F7F00
0F7E00
0E7000
0EF000
0FF000
0FE000
07C000
000000
000000
000000
000000
000000
000000
000000
000000
000000
ENDCHAR

STARTCHAR Code119
ENCODING 119
SWIDTH 451 0
DWIDTH 20 0
BBX 20 40 0 -6
BITMAP
000000
000000
000000
000000
000000
000000
000000
000000
000000
000000
000000
000000
000000
000000
000000
000000
000000
000700
060700
0E7700
1EF700
1CF700
3DF700
39E700
7BE700
73EF00
77EE00
7FFE00
7FFE00
7EFC00
3C7800
000000
000000
000000
000000
000000
000000
000000
000000
000000
ENDCHAR

STARTCHAR Code120
ENCODING 120
SWIDTH 451 0
DWIDTH 20 0
BBX 20 40 0 -6
BITMAP
000000
000000
000000
000000
000000
000000
000000
000000
000000
000000
000000
000000
000000
000000
000000
000000
000000
003800
077800
077800
07F000
07E000
03E000
03CE00
038E00
07DE00
07DC00
0FFC00
1FF800
1EF800
1C7000
1C0000
000000
000000
000000
000000
000000
000000
000000
000000
ENDCHAR

STARTCHAR Code121
ENCODING 121
SWIDTH 451 0
DWIDTH 20 0
BBX 20 40 0 -6
BITMAP
000000
000000
000000
000000
000000
000000
000000
000000
000000
000000
000000
000000
000000
000000
000000
000000
000000
000000
039C00
07BC00
0F3C00
0E7C00
1E7980
1CF980
1DFB80
1FFF00
1FFF00
0F7E00
01FC00
07F800
0FF000
1F7000
1EF000
3CE000
3CE000
39E000
3FC000
3FC000
1F8000
000000
ENDCHAR

STARTCHAR Code122
ENCODING 122
SWIDTH 451 0
DWIDTH 20 0
BBX 20 40 0 -6
BITMAP
000000
000000
000000
000000
000000
000000
000000
000000
000000
000000
000000
000000
000000
000000
000000
000000
000000
000000
07FC00
07FC00
07FC00
00F800
01F000
01E000
03C000
078000
078000
0FFC00
0FFC00
0FFC00
0F8000
000000
000000
000000
000000
000000
000000
000000
000000
000000
ENDCHAR

STARTCHAR Code123
ENCODING 123
SWIDTH 451 0
DWIDTH 20 0
BBX 20 40 0 -6
BITMAP
000000
000000
0003F0
000FF0
001F80
003E00
003C00
007800
007800
007000
007000
007000
007000
00F000
00E000
01E000
03C000
0F8000
FF0000
FC0000
780000
3C0000
1E0000
0F0000
070000
078000
038000
038000
038000
078000
070000
070000
070000
070000
078000
07C000
03FE00
00FE00
000000
000000
ENDCHAR

STARTCHAR Code124
ENCODING 124
SWIDTH 451 0
DWIDTH 20 0
BBX 20 40 0 -6
BITMAP
000000
000000
000000
000000
001C00
001C00
001C00
003C00
003C00
003800
003800
003800
003800
007800
007800
007000
007000
007000
00F000
00F000
00E000
00E000
00E000
01E000
01E000
01C000
01C000
01C000
03C000
03C000
038000
038000
078000
078000
070000
070000
000000
000000
000000
000000
ENDCHAR

STARTCHAR Code125
ENCODING 125
SWIDTH 451 0
DWIDTH 20 0
BBX 20 40 0 -6
BITMAP
000000
000000
07F000
07FC00
003E00
001E00
000E00
000E00
000E00
000E00
001E00
001C00
001C00
001C00
001E00
000E00
000F00
000780
0003C0
0001E0
0003F0
000FF0
001F00
003C00
007800
007000
00F000
00E000
00E000
00E000
00E000
01E000
01E000
03C000
07C000
1F8000
FF0000
FC0000
000000
000000
ENDCHAR

STARTCHAR Code126
ENCODING 126
SWIDTH 451 0
DWIDTH 20 0
BBX 20 40 0 -6
BITMAP
000000
000000
000000
000000
000000
000000
000000
000000
000000
000000
000000
000000
000000
000000
000000
000000
07C000
0FE300
0FFF00
0C7F00
003E00
000000
000000
000000
000000
000000
000000
000000
000000
000000
000000
000000
000000
000000
000000
000000
000000
000000
000000
000000
ENDCHAR

STARTCHAR Code127
ENCODING 127
SWIDTH 451 0
DWIDTH 20 0
BBX 20 40 0 -6
BITMAP
000000
000000
000000
000000
000000
000000
000000
000000
000000
000000
000000
000000
000000
000000
000000
000000
000000
000000
000000
000000
000000
000000
000000
000000
000000
000000
000000
000000
000000
000000
000000
000000
000000
000000
000000
000000
000000
000000
000000
000000
ENDCHAR

STARTCHAR Code128
ENCODING 128
SWIDTH 451 0
DWIDTH 20 0
BBX 20 40 0 -6
BITMAP
000000
000000
000000
000000
000F80
003FC0
007FE0
00F8E0
01F0E0
01E0E0
03C1E0
07C3C0
0783C0
0F07C0
0F0780
0E0700
1E0000
1C0000
1C0000
3C0000
3800C0
3800C0
3801C0
3801C0
380380
380380
3C0700
3C0F00
1E3E00
1FFC00
0FF800
03E000
01C000
01E000
01F000
007000
00F000
03E000
03C000
000000
ENDCHAR

STARTCHAR Code129
ENCODING 129
SWIDTH 451 0
DWIDTH 20 0
BBX 20 40 0 -6
BITMAP
000000
000000
000000
000000
000000
000000
000000
000000
000000
000000
00C600
01EF00
03FF00
03FF00
01CE00
000000
000000
000000
038000
03B800
07B800
073800
077800
0F7000
0E7000
0EF000
0EF000
0EF000
0FF800
0FFC00
079E00
000E00
000000
000000
000000
000000
000000
000000
000000
000000
ENDCHAR

STARTCHAR Code130
ENCODING 130
SWIDTH 451 0
DWIDTH 20 0
BBX 20 40 0 -6
BITMAP
000000
000000
000000
000000
000000
000000
000000
000000
000000
000000
003800
003800
007800
007800
00F000
00F000
00E000
000000
01E000
03F000
07F000
0F7000
0EF000
1FE000
1FE300
1FC700
1F1F00
1E3E00
1FFC00
0FF800
07E000
000000
000000
000000
000000
000000
000000
000000
000000
000000
ENDCHAR

STARTCHAR Code131
ENCODING 131
SWIDTH 451 0
DWIDTH 20 0
BBX 20 40 0 -6
BITMAP
000000
000000
000000
000000
000000
000000
000000
000000
000000
000000
000000
000000
00F800
01FC00
01FE00
018E00
000600
00F000
01F800
03F800
07B800
073800
073800
0F7800
0E7800
0E7000
0EF000
0EF000
0FF800
0FFC00
079E00
000E00
000000
000000
000000
000000
000000
000000
000000
000000
ENDCHAR

STARTCHAR Code132
ENCODING 132
SWIDTH 451 0
DWIDTH 20 0
BBX 20 40 0 -6
BITMAP
000000
000000
000000
000000
000000
000000
000000
000000
000000
000000
00C600
01EF00
03FF00
03FF00
01CE00
000000
000000
00F000
01F800
03F800
07B800
073800
073800
0F7800
0E7800
0E7000
0EF000
0EF000
0FF800
0FFC00
079E00
000E00
000000
000000
000000
000000
000000
000000
000000
000000
ENDCHAR

STARTCHAR Code133
ENCODING 133
SWIDTH 451 0
DWIDTH 20 0
BBX 20 40 0 -6
BITMAP
000000
000000
000000
000000
000000
000000
000000
000000
000000
000000
000000
007000
007800
007C00
003E00
001E00
000E00
00F000
01F800
03F800
07B800
073800
073800
0F7800
0E7800
0E7000
0EF000
0EF000
0FF800
0FFC00
079E00
000E00
000000
000000
000000
000000
000000
000000
000000
000000
ENDCHAR

STARTCHAR Code134
ENCODING 134
SWIDTH 451 0
DWIDTH 20 0
BBX 20 40 0 -6
BITMAP
000000
000000
000000
000000
000000
000000
000000
000000
000000
000000
007800
00FC00
00FC00
00FC00
00FC00
007800
000000
00F000
01F800
03F800
07B800
073800
073800
0F7800
0E7800
0E7000
0EF000
0EF000
0FF800
0FFC00
079E00
000E00
000000
000000
000000
000000
000000
000000
000000
000000
ENDCHAR

STARTCHAR Code135
ENCODING 135
SWIDTH 451 0
DWIDTH 20 0
BBX 20 40 0 -6
BITMAP
000000
000000
000000
000000
000000
000000
000000
000000
000000
000000
000000
000000
000000
000000
000000
000000
000000
007000
01F800
03F800
07B800
073800
0F7800
0E7600
0E0600
0E0E00
0E0E00
0E1C00
0F3C00
07F800
07F000
01C000
03C000
03C000
03E000
00E000
01E000
03C000
038000
000000
ENDCHAR

STARTCHAR Code136
ENCODING 136
SWIDTH 451 0
DWIDTH 20 0
BBX 20 40 0 -6
BITMAP
000000
000000
000000
000000
000000
000000
000000
000000
000000
000000
000000
000000
00F800
01FC00
01FE00
018E00
000600
000000
01E000
03F000
07F000
0F7000
0EF000
1FE000
1FE300
1FC700
1F1F00
1E3E00
1FFC00
0FF800
07E000
000000
000000
000000
000000
000000
000000
000000
000000
000000
ENDCHAR

STARTCHAR Code137
ENCODING 137
SWIDTH 451 0
DWIDTH 20 0
BBX 20 40 0 -6
BITMAP
000000
000000
000000
000000
000000
000000
000000
000000
000000
000000
00C600
01EF00
03FF00
03FF00
01CE00
000000
000000
000000
01E000
03F000
07F000
0F7000
0EF000
1FE000
1FE300
1FC700
1F1F00
1E3E00
1FFC00
0FF800
07E000
000000
000000
000000
000000
000000
000000
000000
000000
000000
ENDCHAR

STARTCHAR Code138
ENCODING 138
SWIDTH 451 0
DWIDTH 20 0
BBX 20 40 0 -6
BITMAP
000000
000000
000000
000000
000000
000000
000000
000000
000000
000000
000000
007000
007800
007C00
003E00
001E00
000E00
000000
01E000
03F000
07F000
0F7000
0EF000
1FE000
1FE300
1FC700
1F0F00
1E3E00
1FFC00
0FF800
07E000
000000
000000
000000
000000
000000
000000
000000
000000
000000
ENDCHAR

STARTCHAR Code139
ENCODING 139
SWIDTH 451 0
DWIDTH 20 0
BBX 20 40 0 -6
BITMAP
000000
000000
000000
000000
000000
000000
000000
000000
000000
000000
00C600
01EF00
03FF00
03FF00
01CE00
000000
000000
000000
007000
007000
00F000
00E000
01E000
01E000
01C000
01C000
03C000
03C000
038000
038000
038000
038000
000000
000000
000000
000000
000000
000000
000000
000000
ENDCHAR

STARTCHAR Code140
ENCODING 140
SWIDTH 451 0
DWIDTH 20 0
BBX 20 40 0 -6
BITMAP
000000
000000
000000
000000
000000
000000
000000
000000
000000
000000
000000
000000
00F800
01FC00
01FE00
018E00
000600
000000
007000
007000
00F000
00E000
01E000
01E000
01C000
01C000
03C000
03C000
038000
038000
038000
038000
000000
000000
000000
000000
000000
000000
000000
000000
ENDCHAR

STARTCHAR Code141
ENCODING 141
SWIDTH 451 0
DWIDTH 20 0
BBX 20 40 0 -6
BITMAP
000000
000000
000000
000000
000000
000000
000000
000000
000000
000000
000000
007000
007800
007C00
003E00
001E00
000E00
000000
007000
007000
00F000
00E000
01E000
01E000
01C000
01C000
03C000
03C000
038000
038000
038000
038000
000000
000000
000000
000000
000000
000000
000000
000000
ENDCHAR

STARTCHAR Code142
ENCODING 142
SWIDTH 451 0
DWIDTH 20 0
BBX 20 40 0 -6
BITMAP
0018C0
003DE0
007FE0
007FE0
0039C0
000000
000000
000380
000780
000F80
001F80
003F80
007B80
007380
00F380
01E380
01C380
03C380
0383F0
079FF0
07FFF0
1FFF80
FFF380
FF0380
FE0380
1C0380
3C03C0
3801C0
3801C0
7801C0
7001E0
7000E0
7000E0
000000
000000
000000
000000
000000
000000
000000
ENDCHAR

STARTCHAR Code143
ENCODING 143
SWIDTH 451 0
DWIDTH 20 0
BBX 20 40 0 -6
BITMAP
000F00
001F80
001F80
001F80
001F80
000F00
000000
000380
000780
000F80
001F80
003F80
007B80
007380
00F380
01E380
01C380
03C380
0383F0
079FF0
07FFF0
1FFF80
FFF380
FF0380
FE0380
1C0380
3C03C0
3801C0
3801C0
7801C0
7001E0
7000E0
7000E0
000000
000000
000000
000000
000000
000000
000000
ENDCHAR

STARTCHAR Code144
ENCODING 144
SWIDTH 451 0
DWIDTH 20 0
BBX 20 40 0 -6
BITMAP
000E00
001E00
001E00
003C00
003C00
003800
000000
000FF0
07FFF0
07FFF0
07F800
038000
078000
070000
070000
0F0000
0E3F00
0FFF00
1FFF00
1FE000
1C0000
1C0000
1C0000
3C0000
380000
380000
387F00
3BFF00
3FFF00
3FE000
1F0000
000000
000000
000000
000000
000000
000000
000000
000000
000000
ENDCHAR

STARTCHAR Code145
ENCODING 145
SWIDTH 451 0
DWIDTH 20 0
BBX 20 40 0 -6
BITMAP
000000
000000
000000
000000
000000
000000
000000
000000
000000
000000
000000
000000
000000
000000
000000
000000
000000
1FBC00
3FFE00
3FFF00
31F700
00E700
1FEF00
3FFF00
7FFEC0
79FDC0
71C1C0
73E380
7FFF80
7FFF00
3E7E00
000000
000000
000000
000000
000000
000000
000000
000000
000000
ENDCHAR

STARTCHAR Code146
ENCODING 146
SWIDTH 451 0
DWIDTH 20 0
BBX 20 40 0 -6
BITMAP
000000
000000
000000
0003F0
003FF0
01FFF0
01FE00
01FC00
01FC00
01DC00
03DC00
039C00
03BC00
07B800
0739F0
073FF0
0FFFF0
FFFF00
FFF800
FE3800
1E3800
1C7800
1C7000
3C7000
387000
387000
787000
7071F0
707FF0
707FF0
703F00
000000
000000
000000
000000
000000
000000
000000
000000
000000
ENDCHAR

STARTCHAR Code147
ENCODING 147
SWIDTH 451 0
DWIDTH 20 0
BBX 20 40 0 -6
BITMAP
000000
000000
000000
000000
000000
000000
000000
000000
000000
000000
000000
000000
00F800
01FC00
01FE00
018E00
000600
00F800
01FC00
03FC00
03DC00
039C00
079C00
071C00
071C00
073C00
073800
077800
07F800
07F000
03E000
000000
000000
000000
000000
000000
000000
000000
000000
000000
ENDCHAR

STARTCHAR Code148
ENCODING 148
SWIDTH 451 0
DWIDTH 20 0
BBX 20 40 0 -6
BITMAP
000000
000000
000000
000000
000000
000000
000000
000000
000000
000000
00E700
01EF00
03FF00
03FF00
01CE00
000000
000000
00F800
01FC00
03FC00
03DC00
039C00
079C00
071C00
071C00
073C00
073800
077800
07F800
07F000
03E000
000000
000000
000000
000000
000000
000000
000000
000000
000000
ENDCHAR

STARTCHAR Code149
ENCODING 149
SWIDTH 451 0
DWIDTH 20 0
BBX 20 40 0 -6
BITMAP
000000
000000
000000
000000
000000
000000
000000
000000
000000
000000
000000
007000
007800
007C00
003E00
001E00
000E00
00F800
01FC00
03FC00
03DC00
039C00
079C00
071C00
071C00
073C00
073800
077800
07F800
07F000
03E000
000000
000000
000000
000000
000000
000000
000000
000000
000000
ENDCHAR

STARTCHAR Code150
ENCODING 150
SWIDTH 451 0
DWIDTH 20 0
BBX 20 40 0 -6
BITMAP
000000
000000
000000
000000
000000
000000
000000
000000
000000
000000
000000
000000
00F800
01FC00
01FE00
018E00
000600
000000
038000
03B800
07B800
073800
077800
0F7000
0E7000
0EF000
0EF000
0EF000
0FF800
0FFC00
079E00
000E00
000000
000000
000000
000000
000000
000000
000000
000000
ENDCHAR

STARTCHAR Code151
ENCODING 151
SWIDTH 451 0
DWIDTH 20 0
BBX 20 40 0 -6
BITMAP
000000
000000
000000
000000
000000
000000
000000
000000
000000
000000
000000
007000
007800
007C00
003E00
001E00
000E00
000000
038000
03B800
07B800
073800
077800
0F7000
0E7000
0EF000
0EF000
0EF000
0FF800
0FFC00
079E00
000E00
000000
000000
000000
000000
000000
000000
000000
000000
ENDCHAR

STARTCHAR Code152
ENCODING 152
SWIDTH 451 0
DWIDTH 20 0
BBX 20 40 0 -6
BITMAP
000000
000000
000000
000000
000000
000000
000000
000000
000000
000000
00C600
01EF00
03FF00
03FF00
01CE00
000000
000000
000000
039C00
07BC00
0F3C00
0E7C00
1E7980
1CF980
1DFB80
1FFF00
1FFF00
0F7E00
01FC00
07F800
0FF000
1F7000
1EF000
3CE000
3CE000
39E000
3FC000
3FC000
1F8000
000000
ENDCHAR

STARTCHAR Code153
ENCODING 153
SWIDTH 451 0
DWIDTH 20 0
BBX 20 40 0 -6
BITMAP
003180
007BC0
00FFC0
00FFC0
007380
000000
000000
03F800
0FFE00
1FFF00
1FEF80
1BC780
07C3C0
0783C0
0F01C0
0F01C0
1E01C0
1E01C0
3C01C0
3C03C0
380380
780380
780780
700700
700F00
700F00
701E00
703E00
787C00
3DF800
3FF000
1FE000
0F8000
000000
000000
000000
000000
000000
000000
000000
ENDCHAR

STARTCHAR Code154
ENCODING 154
SWIDTH 451 0
DWIDTH 20 0
BBX 20 40 0 -6
BITMAP
003180
007BC0
00FFC0
00FFC0
007380
000000
000000
01C0E0
03C0E0
03C1E0
0781E0
0703C0
0F03C0
0E07C0
1E0780
1C0780
1C0F80
3C0F80
380F80
381F80
381F80
781F80
703F80
703B80
707B80
707B80
707380
70F3C0
79E1C0
7FE1C0
3FC1C0
1F01C0
000000
000000
000000
000000
000000
000000
000000
000000
ENDCHAR

STARTCHAR Code155
ENCODING 155
SWIDTH 451 0
DWIDTH 20 0
BBX 20 40 0 -6
BITMAP
000000
000000
000000
000000
000000
000000
000000
000000
000000
000000
000000
000000
003800
003800
00F800
03FC00
07FC00
0FFC00
0FFC00
1EFC00
1ED800
1CC600
1DC600
1DCE00
1FBE00
0FFC00
0FF800
07E000
030000
070000
070000
070000
000000
000000
000000
000000
000000
000000
000000
000000
ENDCHAR

STARTCHAR Code156
ENCODING 156
SWIDTH 451 0
DWIDTH 20 0
BBX 20 40 0 -6
BITMAP
000000
000000
000000
000000
000000
000000
000000
000000
000F80
003F80
007F80
007800
00F000
00E000
00E000
00E000
01E000
01DF80
01FF80
3FFF80
3FF000
3FC000
038000
038000
038000
078000
070000
070000
0FFF80
1FFF80
7FFF80
7F8000
780000
000000
000000
000000
000000
000000
000000
000000
ENDCHAR

STARTCHAR Code157
ENCODING 157
SWIDTH 451 0
DWIDTH 20 0
BBX 20 40 0 -6
BITMAP
000000
000000
000000
000000
000000
000000
000000
000000
0000E0
1C01E0
1E03E0
1F07C0
0F0780
078F00
079F00
039E00
03FC00
01FC00
01F800
01F800
00F000
00FF00
3FFF00
3FFF00
3FFC00
FFFC00
FFFC00
FF8000
078000
0F0000
0F0000
1E0000
1E0000
1C0000
1C0000
000000
000000
000000
000000
000000
ENDCHAR

STARTCHAR Code158
ENCODING 158
SWIDTH 451 0
DWIDTH 20 0
BBX 20 40 0 -6
BITMAP
000000
000000
000000
000000
0E0000
0F8000
1FC000
7FE000
7FE000
7EF000
1C7380
1C7380
1C7380
1C7380
3CF380
38F7F0
39FFF0
FBFFF0
FFFF00
FF8700
7F0F00
700E00
700E00
700E00
F01EE0
F01CE0
E01CE0
E01DE0
E01FC0
E01FC0
E00F80
E00000
E00000
E00000
000000
000000
000000
000000
000000
000000
ENDCHAR

STARTCHAR Code159
ENCODING 159
SWIDTH 451 0
DWIDTH 20 0
BBX 20 40 0 -6
BITMAP
000000
000000
000000
000000
000000
000000
0007F0
000FF0
001FF0
001E00
001C00
003C00
003800
003800
003800
003BC0
003FC0
03FFC0
03FE00
03F000
007000
007000
007000
00F000
00E000
00E000
00E000
00E000
01E000
01C000
01C000
01C000
01C000
03C000
038000
078000
FF8000
FF0000
FE0000
000000
ENDCHAR

STARTCHAR Code160
ENCODING 160
SWIDTH 451 0
DWIDTH 20 0
BBX 20 40 0 -6
BITMAP
000000
000000
000000
000000
000000
000000
000000
000000
000000
000000
003800
003800
007800
007800
00F000
00F000
006000
01F000
03F800
07F800
07B800
0F3800
0E7800
0E7800
0E7800
0E7000
0EF000
0EF000
0FF800
0FFE00
079E00
000E00
000000
000000
000000
000000
000000
000000
000000
000000
ENDCHAR

STARTCHAR Code161
ENCODING 161
SWIDTH 451 0
DWIDTH 20 0
BBX 20 40 0 -6
BITMAP
000000
000000
000000
000000
000000
000000
000000
000000
000000
000000
003800
003800
007800
007800
00F000
00F000
00E000
000000
007000
007000
00F000
00E000
00E000
01E000
01C000
01C000
01C000
03C000
038000
038000
038000
038000
000000
000000
000000
000000
000000
000000
000000
000000
ENDCHAR

STARTCHAR Code162
ENCODING 162
SWIDTH 451 0
DWIDTH 20 0
BBX 20 40 0 -6
BITMAP
000000
000000
000000
000000
000000
000000
000000
000000
000000
000000
003800
003800
007800
007800
00F000
00F000
00E000
00F800
01FC00
03FC00
03DC00
039C00
079C00
071C00
071C00
073C00
073800
077800
07F800
07F000
03E000
000000
000000
000000
000000
000000
000000
000000
000000
000000
ENDCHAR

STARTCHAR Code163
ENCODING 163
SWIDTH 451 0
DWIDTH 20 0
BBX 20 40 0 -6
BITMAP
000000
000000
000000
000000
000000
000000
000000
000000
000000
000000
003800
003800
007800
007800
00F000
00F000
00E000
000000
000000
03B800
07B800
073800
077800
0F7000
0E7000
0E7000
0E7000
0EF000
0FF800
0FFC00
079E00
000E00
000000
000000
000000
000000
000000
000000
000000
000000
ENDCHAR

STARTCHAR Code164
ENCODING 164
SWIDTH 451 0
DWIDTH 20 0
BBX 20 40 0 -6
BITMAP
000000
000000
000000
000000
000000
000000
000000
000000
000000
000000
000000
01E000
03F300
03FF00
033F00
001E00
000000
000000
003800
077800
07F800
07F800
0FF000
0FF000
0FF000
0FE000
1EE000
1CE000
1CE000
1CE000
1CF000
007000
007800
003800
000000
000000
000000
000000
000000
000000
ENDCHAR

STARTCHAR Code165
ENCODING 165
SWIDTH 451 0
DWIDTH 20 0
BBX 20 40 0 -6
BITMAP
000000
007800
00FCC0
00FFC0
00CFC0
000780
000000
000070
0180F0
03C0F0
03C0E0
07C1E0
07C1E0
0FC1C0
0FC3C0
1FC3C0
1DC380
1DC380
3DC380
39E780
38E700
38E700
78E700
70F700
707700
707700
707F00
F03F00
F03E00
E03E00
E01E00
E01E00
E00C00
000000
000000
000000
000000
000000
000000
000000
ENDCHAR

STARTCHAR Code166
ENCODING 166
SWIDTH 451 0
DWIDTH 20 0
BBX 20 40 0 -6
BITMAP
000000
000000
000000
000000
007800
00FC00
00FC00
01DC00
01D800
01BC00
01FC00
01FE00
00EE00
01FE00
01FE00
000000
000000
000000
000000
000000
000000
000000
000000
000000
000000
000000
000000
000000
000000
000000
000000
000000
000000
000000
000000
000000
000000
000000
000000
000000
ENDCHAR

STARTCHAR Code167
ENCODING 167
SWIDTH 451 0
DWIDTH 20 0
BBX 20 40 0 -6
BITMAP
000000
000000
000000
000000
003800
007C00
007C00
00EC00
00FC00
00DC00
00F800
00F800
007000
01FC00
01FC00
000000
000000
000000
000000
000000
000000
000000
000000
000000
000000
000000
000000
000000
000000
000000
000000
000000
000000
000000
000000
000000
000000
000000
000000
000000
ENDCHAR

STARTCHAR Code168
ENCODING 168
SWIDTH 451 0
DWIDTH 20 0
BBX 20 40 0 -6
BITMAP
000000
000000
000000
000000
000000
000000
000000
000000
000E00
001E00
001E00
001E00
001C00
000000
000000
000000
000000
003800
003800
003800
003800
007800
007800
00F000
01F000
03E000
0FC000
1F8000
3E0000
7C0000
780E00
700E00
701E00
783E00
3CFC00
3FF800
1FF000
07C000
000000
000000
ENDCHAR

STARTCHAR Code169
ENCODING 169
SWIDTH 451 0
DWIDTH 20 0
BBX 20 40 0 -6
BITMAP
000000
000000
000000
000000
000000
000000
000000
000000
000000
000000
000000
000000
000000
000000
7FFFE0
7FFFE0
7FFFE0
700000
700000
700000
700000
700000
700000
700000
000000
000000
000000
000000
000000
000000
000000
000000
000000
000000
000000
000000
000000
000000
000000
000000
ENDCHAR

STARTCHAR Code170
ENCODING 170
SWIDTH 451 0
DWIDTH 20 0
BBX 20 40 0 -6
BITMAP
000000
000000
000000
000000
000000
000000
000000
000000
000000
000000
000000
000000
000000
000000
7FFFE0
7FFFE0
7FFFE0
0000E0
0000E0
0000E0
0000E0
0000E0
0000E0
0000E0
000000
000000
000000
000000
000000
000000
000000
000000
000000
000000
000000
000000
000000
000000
000000
000000
ENDCHAR

STARTCHAR Code171
ENCODING 171
SWIDTH 451 0
DWIDTH 20 0
BBX 20 40 0 -6
BITMAP
000000
000380
000F80
003F80
00FF00
00FF00
000E00
001E00
001C00
003C00
003800
003800
007800
007000
007000
007000
000000
0FFF00
3FFFE0
3FFFE0
3801E0
000000
00F800
03FC00
07FE00
079E00
061E00
003E00
007C00
00F800
01F000
03E000
07C000
07BF00
0FFF00
0FFF00
0FE000
000000
000000
000000
ENDCHAR

STARTCHAR Code172
ENCODING 172
SWIDTH 451 0
DWIDTH 20 0
BBX 20 40 0 -6
BITMAP
000000
000380
000F80
003F80
00FF00
00FF00
000E00
001E00
001C00
003C00
003800
003800
007800
007000
007000
007000
000000
0FFF00
3FFFE0
3FFFE0
3801E0
000700
001F00
003F00
007F00
00FE00
01FE00
03DC00
039C00
07BC00
0FFF00
0FFF00
0FFF00
0FF800
007000
007000
007000
007000
000000
000000
ENDCHAR

STARTCHAR Code173
ENCODING 173
SWIDTH 451 0
DWIDTH 20 0
BBX 20 40 0 -6
BITMAP
000000
000000
000000
000000
000000
000000
000000
000000
001C00
001C00
001C00
001C00
001C00
000000
007000
007000
007000
007000
00F000
00F000
00E000
01E000
01E000
01E000
03C000
03C000
03C000
078000
078000
078000
0F0000
0F0000
0F0000
1E0000
1E0000
1E0000
1C0000
1C0000
000000
000000
ENDCHAR

STARTCHAR Code174
ENCODING 174
SWIDTH 451 0
DWIDTH 20 0
BBX 20 40 0 -6
BITMAP
000000
000000
000000
000000
000000
000000
000000
000000
000000
000000
000000
000000
000000
000000
01CE00
03DE00
039C00
07BC00
073800
07BC00
03DE00
01EF00
00E700
000000
000000
000000
000000
000000
000000
000000
000000
000000
000000
000000
000000
000000
000000
000000
000000
000000
ENDCHAR

STARTCHAR Code175
ENCODING 175
SWIDTH 451 0
DWIDTH 20 0
BBX 20 40 0 -6
BITMAP
000000
000000
000000
000000
000000
000000
000000
000000
000000
000000
000000
000000
000000
000000
000000
077000
07F800
03B800
03FC00
01DC00
03FC00
07F800
0FF000
0EE000
000000
000000
000000
000000
000000
000000
000000
000000
000000
000000
000000
000000
000000
000000
000000
000000
ENDCHAR

STARTCHAR Code176
ENCODING 176
SWIDTH 451 0
DWIDTH 20 0
BBX 20 40 0 -6
BITMAP
000000
666660
666660
000000
000000
000000
000000
666660
666660
000000
000000
000000
000000
666660
666660
000000
000000
000000
000000
666660
666660
000000
000000
000000
000000
666660
666660
000000
000000
000000
000000
666660
666660
000000
000000
000000
000000
666660
666660
000000
ENDCHAR

STARTCHAR Code177
ENCODING 177
SWIDTH 451 0
DWIDTH 20 0
BBX 20 40 0 -6
BITMAP
318C60
7BDEF0
7BDEF0
318C60
000000
000000
318C60
7BDEF0
7BDEF0
318C60
000000
000000
318C60
7BDEF0
7BDEF0
318C60
000000
000000
318C60
7BDEF0
7BDEF0
318C60
000000
000000
318C60
7BDEF0
7BDEF0
318C60
000000
000000
318C60
7BDEF0
7BDEF0
318C60
000000
000000
318C60
7BDEF0
7BDEF0
318C60
ENDCHAR

STARTCHAR Code178
ENCODING 178
SWIDTH 451 0
DWIDTH 20 0
BBX 20 40 0 -6
BITMAP
7BDEF0
7BDEF0
7BDEF0
318C60
000000
318C60
7BDEF0
7BDEF0
7BDEF0
318C60
000000
318C60
7BDEF0
7BDEF0
7BDEF0
318C60
000000
318C60
7BDEF0
7BDEF0
7BDEF0
318C60
000000
318C60
7BDEF0
7BDEF0
7BDEF0
318C60
000000
318C60
7BDEF0
7BDEF0
7BDEF0
318C60
000000
318C60
7BDEF0
7BDEF0
7BDEF0
318C60
ENDCHAR

STARTCHAR Code179
ENCODING 179
SWIDTH 451 0
DWIDTH 20 0
BBX 20 40 0 -6
BITMAP
007000
007000
007000
007000
007000
007000
007000
007000
007000
007000
007000
007000
007000
007000
007000
007000
007000
007000
007000
007000
007000
007000
007000
007000
007000
007000
007000
007000
007000
007000
007000
007000
007000
007000
007000
007000
007000
007000
007000
007000
ENDCHAR

STARTCHAR Code180
ENCODING 180
SWIDTH 451 0
DWIDTH 20 0
BBX 20 40 0 -6
BITMAP
007000
007000
007000
007000
007000
007000
007000
007000
007000
007000
007000
007000
007000
007000
007000
007000
007000
007000
FFF000
FFF000
FFF000
007000
007000
007000
007000
007000
007000
007000
007000
007000
007000
007000
007000
007000
007000
007000
007000
007000
007000
007000
ENDCHAR

STARTCHAR Code181
ENCODING 181
SWIDTH 451 0
DWIDTH 20 0
BBX 20 40 0 -6
BITMAP
007000
007000
007000
007000
007000
007000
007000
007000
007000
007000
007000
007000
007000
007000
007000
007000
FFF000
FFF000
FFF000
007000
FFF000
FFF000
FFF000
007000
007000
007000
007000
007000
007000
007000
007000
007000
007000
007000
007000
007000
007000
007000
007000
007000
ENDCHAR

STARTCHAR Code182
ENCODING 182
SWIDTH 451 0
DWIDTH 20 0
BBX 20 40 0 -6
BITMAP
01DC00
01DC00
01DC00
01DC00
01DC00
01DC00
01DC00
01DC00
01DC00
01DC00
01DC00
01DC00
01DC00
01DC00
01DC00
01DC00
01DC00
01DC00
FFDC00
FFDC00
FFDC00
01DC00
01DC00
01DC00
01DC00
01DC00
01DC00
01DC00
01DC00
01DC00
01DC00
01DC00
01DC00
01DC00
01DC00
01DC00
01DC00
01DC00
01DC00
01DC00
ENDCHAR

STARTCHAR Code183
ENCODING 183
SWIDTH 451 0
DWIDTH 20 0
BBX 20 40 0 -6
BITMAP
000000
000000
000000
000000
000000
000000
000000
000000
000000
000000
000000
000000
000000
000000
000000
000000
000000
000000
FFFC00
FFFC00
FFFC00
01DC00
01DC00
01DC00
01DC00
01DC00
01DC00
01DC00
01DC00
01DC00
01DC00
01DC00
01DC00
01DC00
01DC00
01DC00
01DC00
01DC00
01DC00
01DC00
ENDCHAR

STARTCHAR Code184
ENCODING 184
SWIDTH 451 0
DWIDTH 20 0
BBX 20 40 0 -6
BITMAP
000000
000000
000000
000000
000000
000000
000000
000000
000000
000000
000000
000000
000000
000000
000000
000000
FFF000
FFF000
FFF000
007000
FFF000
FFF000
FFF000
007000
007000
007000
007000
007000
007000
007000
007000
007000
007000
007000
007000
007000
007000
007000
007000
007000
ENDCHAR

STARTCHAR Code185
ENCODING 185
SWIDTH 451 0
DWIDTH 20 0
BBX 20 40 0 -6
BITMAP
01DC00
01DC00
01DC00
01DC00
01DC00
01DC00
01DC00
01DC00
01DC00
01DC00
01DC00
01DC00
01DC00
01DC00
01DC00
01DC00
FFDC00
FFDC00
FFDC00
001C00
FFDC00
FFDC00
FFDC00
01DC00
01DC00
01DC00
01DC00
01DC00
01DC00
01DC00
01DC00
01DC00
01DC00
01DC00
01DC00
01DC00
01DC00
01DC00
01DC00
01DC00
ENDCHAR

STARTCHAR Code186
ENCODING 186
SWIDTH 451 0
DWIDTH 20 0
BBX 20 40 0 -6
BITMAP
01DC00
01DC00
01DC00
01DC00
01DC00
01DC00
01DC00
01DC00
01DC00
01DC00
01DC00
01DC00
01DC00
01DC00
01DC00
01DC00
01DC00
01DC00
01DC00
01DC00
01DC00
01DC00
01DC00
01DC00
01DC00
01DC00
01DC00
01DC00
01DC00
01DC00
01DC00
01DC00
01DC00
01DC00
01DC00
01DC00
01DC00
01DC00
01DC00
01DC00
ENDCHAR

STARTCHAR Code187
ENCODING 187
SWIDTH 451 0
DWIDTH 20 0
BBX 20 40 0 -6
BITMAP
000000
000000
000000
000000
000000
000000
000000
000000
000000
000000
000000
000000
000000
000000
000000
000000
FFFC00
FFFC00
FFFC00
001C00
FFDC00
FFDC00
FFDC00
01DC00
01DC00
01DC00
01DC00
01DC00
01DC00
01DC00
01DC00
01DC00
01DC00
01DC00
01DC00
01DC00
01DC00
01DC00
01DC00
01DC00
ENDCHAR

STARTCHAR Code188
ENCODING 188
SWIDTH 451 0
DWIDTH 20 0
BBX 20 40 0 -6
BITMAP
01DC00
01DC00
01DC00
01DC00
01DC00
01DC00
01DC00
01DC00
01DC00
01DC00
01DC00
01DC00
01DC00
01DC00
01DC00
01DC00
FFDC00
FFDC00
FFDC00
001C00
FFFC00
FFFC00
FFFC00
000000
000000
000000
000000
000000
000000
000000
000000
000000
000000
000000
000000
000000
000000
000000
000000
000000
ENDCHAR

STARTCHAR Code189
ENCODING 189
SWIDTH 451 0
DWIDTH 20 0
BBX 20 40 0 -6
BITMAP
01DC00
01DC00
01DC00
01DC00
01DC00
01DC00
01DC00
01DC00
01DC00
01DC00
01DC00
01DC00
01DC00
01DC00
01DC00
01DC00
01DC00
01DC00
FFFC00
FFFC00
FFFC00
000000
000000
000000
000000
000000
000000
000000
000000
000000
000000
000000
000000
000000
000000
000000
000000
000000
000000
000000
ENDCHAR

STARTCHAR Code190
ENCODING 190
SWIDTH 451 0
DWIDTH 20 0
BBX 20 40 0 -6
BITMAP
007000
007000
007000
007000
007000
007000
007000
007000
007000
007000
007000
007000
007000
007000
007000
007000
FFF000
FFF000
FFF000
007000
FFF000
FFF000
FFF000
000000
000000
000000
000000
000000
000000
000000
000000
000000
000000
000000
000000
000000
000000
000000
000000
000000
ENDCHAR

STARTCHAR Code191
ENCODING 191
SWIDTH 451 0
DWIDTH 20 0
BBX 20 40 0 -6
BITMAP
000000
000000
000000
000000
000000
000000
000000
000000
000000
000000
000000
000000
000000
000000
000000
000000
000000
000000
FFF000
FFF000
FFF000
007000
007000
007000
007000
007000
007000
007000
007000
007000
007000
007000
007000
007000
007000
007000
007000
007000
007000
007000
ENDCHAR

STARTCHAR Code192
ENCODING 192
SWIDTH 451 0
DWIDTH 20 0
BBX 20 40 0 -6
BITMAP
007000
007000
007000
007000
007000
007000
007000
007000
007000
007000
007000
007000
007000
007000
007000
007000
007000
007000
007FF0
007FF0
007FF0
000000
000000
000000
000000
000000
000000
000000
000000
000000
000000
000000
000000
000000
000000
000000
000000
000000
000000
000000
ENDCHAR

STARTCHAR Code193
ENCODING 193
SWIDTH 451 0
DWIDTH 20 0
BBX 20 40 0 -6
BITMAP
007000
007000
007000
007000
007000
007000
007000
007000
007000
007000
007000
007000
007000
007000
007000
007000
007000
007000
FFFFF0
FFFFF0
FFFFF0
000000
000000
000000
000000
000000
000000
000000
000000
000000
000000
000000
000000
000000
000000
000000
000000
000000
000000
000000
ENDCHAR

STARTCHAR Code194
ENCODING 194
SWIDTH 451 0
DWIDTH 20 0
BBX 20 40 0 -6
BITMAP
000000
000000
000000
000000
000000
000000
000000
000000
000000
000000
000000
000000
000000
000000
000000
000000
000000
000000
FFFFF0
FFFFF0
FFFFF0
007000
007000
007000
007000
007000
007000
007000
007000
007000
007000
007000
007000
007000
007000
007000
007000
007000
007000
007000
ENDCHAR

STARTCHAR Code195
ENCODING 195
SWIDTH 451 0
DWIDTH 20 0
BBX 20 40 0 -6
BITMAP
007000
007000
007000
007000
007000
007000
007000
007000
007000
007000
007000
007000
007000
007000
007000
007000
007000
007000
007FF0
007FF0
007FF0
007000
007000
007000
007000
007000
007000
007000
007000
007000
007000
007000
007000
007000
007000
007000
007000
007000
007000
007000
ENDCHAR

STARTCHAR Code196
ENCODING 196
SWIDTH 451 0
DWIDTH 20 0
BBX 20 40 0 -6
BITMAP
000000
000000
000000
000000
000000
000000
000000
000000
000000
000000
000000
000000
000000
000000
000000
000000
000000
000000
FFFFF0
FFFFF0
FFFFF0
000000
000000
000000
000000
000000
000000
000000
000000
000000
000000
000000
000000
000000
000000
000000
000000
000000
000000
000000
ENDCHAR

STARTCHAR Code197
ENCODING 197
SWIDTH 451 0
DWIDTH 20 0
BBX 20 40 0 -6
BITMAP
007000
007000
007000
007000
007000
007000
007000
007000
007000
007000
007000
007000
007000
007000
007000
007000
007000
007000
FFFFF0
FFFFF0
FFFFF0
007000
007000
007000
007000
007000
007000
007000
007000
007000
007000
007000
007000
007000
007000
007000
007000
007000
007000
007000
ENDCHAR

STARTCHAR Code198
ENCODING 198
SWIDTH 451 0
DWIDTH 20 0
BBX 20 40 0 -6
BITMAP
007000
007000
007000
007000
007000
007000
007000
007000
007000
007000
007000
007000
007000
007000
007000
007000
007FF0
007FF0
007FF0
007000
007FF0
007FF0
007FF0
007000
007000
007000
007000
007000
007000
007000
007000
007000
007000
007000
007000
007000
007000
007000
007000
007000
ENDCHAR

STARTCHAR Code199
ENCODING 199
SWIDTH 451 0
DWIDTH 20 0
BBX 20 40 0 -6
BITMAP
01DC00
01DC00
01DC00
01DC00
01DC00
01DC00
01DC00
01DC00
01DC00
01DC00
01DC00
01DC00
01DC00
01DC00
01DC00
01DC00
01DC00
01DC00
01DFF0
01DFF0
01DFF0
01DC00
01DC00
01DC00
01DC00
01DC00
01DC00
01DC00
01DC00
01DC00
01DC00
01DC00
01DC00
01DC00
01DC00
01DC00
01DC00
01DC00
01DC00
01DC00
ENDCHAR

STARTCHAR Code200
ENCODING 200
SWIDTH 451 0
DWIDTH 20 0
BBX 20 40 0 -6
BITMAP
01DC00
01DC00
01DC00
01DC00
01DC00
01DC00
01DC00
01DC00
01DC00
01DC00
01DC00
01DC00
01DC00
01DC00
01DC00
01DC00
01DFF0
01DFF0
01DFF0
01C000
01FFF0
01FFF0
01FFF0
000000
000000
000000
000000
000000
000000
000000
000000
000000
000000
000000
000000
000000
000000
000000
000000
000000
ENDCHAR

STARTCHAR Code201
ENCODING 201
SWIDTH 451 0
DWIDTH 20 0
BBX 20 40 0 -6
BITMAP
000000
000000
000000
000000
000000
000000
000000
000000
000000
000000
000000
000000
000000
000000
000000
000000
01FFF0
01FFF0
01FFF0
01C000
01DFF0
01DFF0
01DFF0
01DC00
01DC00
01DC00
01DC00
01DC00
01DC00
01DC00
01DC00
01DC00
01DC00
01DC00
01DC00
01DC00
01DC00
01DC00
01DC00
01DC00
ENDCHAR

STARTCHAR Code202
ENCODING 202
SWIDTH 451 0
DWIDTH 20 0
BBX 20 40 0 -6
BITMAP
01DC00
01DC00
01DC00
01DC00
01DC00
01DC00
01DC00
01DC00
01DC00
01DC00
01DC00
01DC00
01DC00
01DC00
01DC00
01DC00
FFDFF0
FFDFF0
FFDFF0
000000
FFFFF0
FFFFF0
FFFFF0
000000
000000
000000
000000
000000
000000
000000
000000
000000
000000
000000
000000
000000
000000
000000
000000
000000
ENDCHAR

STARTCHAR Code203
ENCODING 203
SWIDTH 451 0
DWIDTH 20 0
BBX 20 40 0 -6
BITMAP
000000
000000
000000
000000
000000
000000
000000
000000
000000
000000
000000
000000
000000
000000
000000
000000
FFFFF0
FFFFF0
FFFFF0
000000
FFDFF0
FFDFF0
FFDFF0
01DC00
01DC00
01DC00
01DC00
01DC00
01DC00
01DC00
01DC00
01DC00
01DC00
01DC00
01DC00
01DC00
01DC00
01DC00
01DC00
01DC00
ENDCHAR

STARTCHAR Code204
ENCODING 204
SWIDTH 451 0
DWIDTH 20 0
BBX 20 40 0 -6
BITMAP
01DC00
01DC00
01DC00
01DC00
01DC00
01DC00
01DC00
01DC00
01DC00
01DC00
01DC00
01DC00
01DC00
01DC00
01DC00
01DC00
01DFF0
01DFF0
01DFF0
01C000
01DFF0
01DFF0
01DFF0
01DC00
01DC00
01DC00
01DC00
01DC00
01DC00
01DC00
01DC00
01DC00
01DC00
01DC00
01DC00
01DC00
01DC00
01DC00
01DC00
01DC00
ENDCHAR

STARTCHAR Code205
ENCODING 205
SWIDTH 451 0
DWIDTH 20 0
BBX 20 40 0 -6
BITMAP
000000
000000
000000
000000
000000
000000
000000
000000
000000
000000
000000
000000
000000
000000
000000
000000
FFFFF0
FFFFF0
FFFFF0
000000
FFFFF0
FFFFF0
FFFFF0
000000
000000
000000
000000
000000
000000
000000
000000
000000
000000
000000
000000
000000
000000
000000
000000
000000
ENDCHAR

STARTCHAR Code206
ENCODING 206
SWIDTH 451 0
DWIDTH 20 0
BBX 20 40 0 -6
BITMAP
01DC00
01DC00
01DC00
01DC00
01DC00
01DC00
01DC00
01DC00
01DC00
01DC00
01DC00
01DC00
01DC00
01DC00
01DC00
01DC00
FFDFF0
FFDFF0
FFDFF0
000000
FFDFF0
FFDFF0
FFDFF0
01DC00
01DC00
01DC00
01DC00
01DC00
01DC00
01DC00
01DC00
01DC00
01DC00
01DC00
01DC00
01DC00
01DC00
01DC00
01DC00
01DC00
ENDCHAR

STARTCHAR Code207
ENCODING 207
SWIDTH 451 0
DWIDTH 20 0
BBX 20 40 0 -6
BITMAP
007000
007000
007000
007000
007000
007000
007000
007000
007000
007000
007000
007000
007000
007000
007000
007000
FFFFF0
FFFFF0
FFFFF0
000000
FFFFF0
FFFFF0
FFFFF0
000000
000000
000000
000000
000000
000000
000000
000000
000000
000000
000000
000000
000000
000000
000000
000000
000000
ENDCHAR

STARTCHAR Code208
ENCODING 208
SWIDTH 451 0
DWIDTH 20 0
BBX 20 40 0 -6
BITMAP
01DC00
01DC00
01DC00
01DC00
01DC00
01DC00
01DC00
01DC00
01DC00
01DC00
01DC00
01DC00
01DC00
01DC00
01DC00
01DC00
01DC00
01DC00
FFFFF0
FFFFF0
FFFFF0
000000
000000
000000
000000
000000
000000
000000
000000
000000
000000
000000
000000
000000
000000
000000
000000
000000
000000
000000
ENDCHAR

STARTCHAR Code209
ENCODING 209
SWIDTH 451 0
DWIDTH 20 0
BBX 20 40 0 -6
BITMAP
000000
000000
000000
000000
000000
000000
000000
000000
000000
000000
000000
000000
000000
000000
000000
000000
FFFFF0
FFFFF0
FFFFF0
000000
FFFFF0
FFFFF0
FFFFF0
007000
007000
007000
007000
007000
007000
007000
007000
007000
007000
007000
007000
007000
007000
007000
007000
007000
ENDCHAR

STARTCHAR Code210
ENCODING 210
SWIDTH 451 0
DWIDTH 20 0
BBX 20 40 0 -6
BITMAP
000000
000000
000000
000000
000000
000000
000000
000000
000000
000000
000000
000000
000000
000000
000000
000000
000000
000000
FFFFF0
FFFFF0
FFFFF0
01DC00
01DC00
01DC00
01DC00
01DC00
01DC00
01DC00
01DC00
01DC00
01DC00
01DC00
01DC00
01DC00
01DC00
01DC00
01DC00
01DC00
01DC00
01DC00
ENDCHAR

STARTCHAR Code211
ENCODING 211
SWIDTH 451 0
DWIDTH 20 0
BBX 20 40 0 -6
BITMAP
01DC00
01DC00
01DC00
01DC00
01DC00
01DC00
01DC00
01DC00
01DC00
01DC00
01DC00
01DC00
01DC00
01DC00
01DC00
01DC00
01DC00
01DC00
01FFF0
01FFF0
01FFF0
000000
000000
000000
000000
000000
000000
000000
000000
000000
000000
000000
000000
000000
000000
000000
000000
000000
000000
000000
ENDCHAR

STARTCHAR Code212
ENCODING 212
SWIDTH 451 0
DWIDTH 20 0
BBX 20 40 0 -6
BITMAP
007000
007000
007000
007000
007000
007000
007000
007000
007000
007000
007000
007000
007000
007000
007000
007000
007FF0
007FF0
007FF0
007000
007FF0
007FF0
007FF0
000000
000000
000000
000000
000000
000000
000000
000000
000000
000000
000000
000000
000000
000000
000000
000000
000000
ENDCHAR

STARTCHAR Code213
ENCODING 213
SWIDTH 451 0
DWIDTH 20 0
BBX 20 40 0 -6
BITMAP
000000
000000
000000
000000
000000
000000
000000
000000
000000
000000
000000
000000
000000
000000
000000
000000
007FF0
007FF0
007FF0
007000
007FF0
007FF0
007FF0
007000
007000
007000
007000
007000
007000
007000
007000
007000
007000
007000
007000
007000
007000
007000
007000
007000
ENDCHAR

STARTCHAR Code214
ENCODING 214
SWIDTH 451 0
DWIDTH 20 0
BBX 20 40 0 -6
BITMAP
000000
000000
000000
000000
000000
000000
000000
000000
000000
000000
000000
000000
000000
000000
000000
000000
000000
000000
01FFF0
01FFF0
01FFF0
01DC00
01DC00
01DC00
01DC00
01DC00
01DC00
01DC00
01DC00
01DC00
01DC00
01DC00
01DC00
01DC00
01DC00
01DC00
01DC00
01DC00
01DC00
01DC00
ENDCHAR

STARTCHAR Code215
ENCODING 215
SWIDTH 451 0
DWIDTH 20 0
BBX 20 40 0 -6
BITMAP
01DC00
01DC00
01DC00
01DC00
01DC00
01DC00
01DC00
01DC00
01DC00
01DC00
01DC00
01DC00
01DC00
01DC00
01DC00
01DC00
01DC00
01DC00
FFFFF0
FFFFF0
FFFFF0
01DC00
01DC00
01DC00
01DC00
01DC00
01DC00
01DC00
01DC00
01DC00
01DC00
01DC00
01DC00
01DC00
01DC00
01DC00
01DC00
01DC00
01DC00
01DC00
ENDCHAR

STARTCHAR Code216
ENCODING 216
SWIDTH 451 0
DWIDTH 20 0
BBX 20 40 0 -6
BITMAP
007000
007000
007000
007000
007000
007000
007000
007000
007000
007000
007000
007000
007000
007000
007000
007000
FFFFF0
FFFFF0
FFFFF0
007000
FFFFF0
FFFFF0
FFFFF0
007000
007000
007000
007000
007000
007000
007000
007000
007000
007000
007000
007000
007000
007000
007000
007000
007000
ENDCHAR

STARTCHAR Code217
ENCODING 217
SWIDTH 451 0
DWIDTH 20 0
BBX 20 40 0 -6
BITMAP
007000
007000
007000
007000
007000
007000
007000
007000
007000
007000
007000
007000
007000
007000
007000
007000
007000
007000
FFF000
FFF000
FFF000
000000
000000
000000
000000
000000
000000
000000
000000
000000
000000
000000
000000
000000
000000
000000
000000
000000
000000
000000
ENDCHAR

STARTCHAR Code218
ENCODING 218
SWIDTH 451 0
DWIDTH 20 0
BBX 20 40 0 -6
BITMAP
000000
000000
000000
000000
000000
000000
000000
000000
000000
000000
000000
000000
000000
000000
000000
000000
000000
000000
007FF0
007FF0
007FF0
007000
007000
007000
007000
007000
007000
007000
007000
007000
007000
007000
007000
007000
007000
007000
007000
007000
007000
007000
ENDCHAR

STARTCHAR Code219
ENCODING 219
SWIDTH 451 0
DWIDTH 20 0
BBX 20 40 0 -6
BITMAP
FFFFF0
FFFFF0
FFFFF0
FFFFF0
FFFFF0
FFFFF0
FFFFF0
FFFFF0
FFFFF0
FFFFF0
FFFFF0
FFFFF0
FFFFF0
FFFFF0
FFFFF0
FFFFF0
FFFFF0
FFFFF0
FFFFF0
FFFFF0
FFFFF0
FFFFF0
FFFFF0
FFFFF0
FFFFF0
FFFFF0
FFFFF0
FFFFF0
FFFFF0
FFFFF0
FFFFF0
FFFFF0
FFFFF0
FFFFF0
FFFFF0
FFFFF0
FFFFF0
FFFFF0
FFFFF0
FFFFF0
ENDCHAR

STARTCHAR Code220
ENCODING 220
SWIDTH 451 0
DWIDTH 20 0
BBX 20 40 0 -6
BITMAP
000000
000000
000000
000000
000000
000000
000000
000000
000000
000000
000000
000000
000000
000000
000000
000000
000000
000000
000000
FFFFF0
FFFFF0
FFFFF0
FFFFF0
FFFFF0
FFFFF0
FFFFF0
FFFFF0
FFFFF0
FFFFF0
FFFFF0
FFFFF0
FFFFF0
FFFFF0
FFFFF0
FFFFF0
FFFFF0
FFFFF0
FFFFF0
FFFFF0
FFFFF0
ENDCHAR

STARTCHAR Code221
ENCODING 221
SWIDTH 451 0
DWIDTH 20 0
BBX 20 40 0 -6
BITMAP
FFE000
FFE000
FFE000
FFE000
FFE000
FFE000
FFE000
FFE000
FFE000
FFE000
FFE000
FFE000
FFE000
FFE000
FFE000
FFE000
FFE000
FFE000
FFE000
FFE000
FFE000
FFE000
FFE000
FFE000
FFE000
FFE000
FFE000
FFE000
FFE000
FFE000
FFE000
FFE000
FFE000
FFE000
FFE000
FFE000
FFE000
FFE000
FFE000
FFE000
ENDCHAR

STARTCHAR Code222
ENCODING 222
SWIDTH 451 0
DWIDTH 20 0
BBX 20 40 0 -6
BITMAP
003FF0
003FF0
003FF0
003FF0
003FF0
003FF0
003FF0
003FF0
003FF0
003FF0
003FF0
003FF0
003FF0
003FF0
003FF0
003FF0
003FF0
003FF0
003FF0
003FF0
003FF0
003FF0
003FF0
003FF0
003FF0
003FF0
003FF0
003FF0
003FF0
003FF0
003FF0
003FF0
003FF0
003FF0
003FF0
003FF0
003FF0
003FF0
003FF0
003FF0
ENDCHAR

STARTCHAR Code223
ENCODING 223
SWIDTH 451 0
DWIDTH 20 0
BBX 20 40 0 -6
BITMAP
FFFFF0
FFFFF0
FFFFF0
FFFFF0
FFFFF0
FFFFF0
FFFFF0
FFFFF0
FFFFF0
FFFFF0
FFFFF0
FFFFF0
FFFFF0
FFFFF0
FFFFF0
FFFFF0
FFFFF0
FFFFF0
FFFFF0
FFFFF0
000000
000000
000000
000000
000000
000000
000000
000000
000000
000000
000000
000000
000000
000000
000000
000000
000000
000000
000000
000000
ENDCHAR

STARTCHAR Code224
ENCODING 224
SWIDTH 451 0
DWIDTH 20 0
BBX 20 40 0 -6
BITMAP
000000
000000
000000
000000
000000
000000
000000
000000
000000
000000
000000
000000
000000
000000
000000
000000
000000
01F700
03FF00
07FF00
079E00
0F1E00
0F1E00
0E1C00
0E1C00
0E3C00
0E3C00
0F7C00
0FFEC0
07FFC0
03CFC0
000780
000000
000000
000000
000000
000000
000000
000000
000000
ENDCHAR

STARTCHAR Code225
ENCODING 225
SWIDTH 451 0
DWIDTH 20 0
BBX 20 40 0 -6
BITMAP
000000
000000
000000
003C00
00FF00
01FF80
03F7C0
03C3C0
0781C0
0781C0
0703C0
0707C0
0F1F80
0E7F00
0FFE00
0FF800
1FFC00
1C7F00
1C0F80
1C0780
1C03C0
1C03C0
3C01C0
3801C0
3801C0
3801C0
3803C0
3803C0
380780
3C1F80
3FFF00
7FFE00
77F800
700000
700000
700000
700000
700000
000000
000000
ENDCHAR

STARTCHAR Code226
ENCODING 226
SWIDTH 451 0
DWIDTH 20 0
BBX 20 40 0 -6
BITMAP
000000
000000
000000
000FF0
07FFF0
07FFF0
07F800
038000
078000
070000
070000
0F0000
0E0000
0E0000
1E0000
1C0000
1C0000
1C0000
3C0000
380000
380000
380000
380000
780000
700000
700000
700000
700000
700000
700000
700000
000000
000000
000000
000000
000000
000000
000000
000000
000000
ENDCHAR

STARTCHAR Code227
ENCODING 227
SWIDTH 451 0
DWIDTH 20 0
BBX 20 40 0 -6
BITMAP
000000
000000
000000
000000
000000
000000
000000
000000
000000
000000
000000
000000
000000
000000
000000
000000
000000
0FFFC0
0FFFC0
0FFFC0
01DC00
01DC00
01DC00
01DC00
03FC00
03B800
03B800
07BDC0
073FC0
0F1FC0
0E0F80
000000
000000
000000
000000
000000
000000
000000
000000
000000
ENDCHAR

STARTCHAR Code228
ENCODING 228
SWIDTH 451 0
DWIDTH 20 0
BBX 20 40 0 -6
BITMAP
000000
000000
000000
001FF0
07FFF0
07FFF0
07FC00
07C000
03F000
00F800
007C00
003C00
001E00
000F00
000F00
000780
001F80
003F80
00FE00
01F800
03F000
07C000
0F8000
1F0000
1E0000
3C0000
78FE00
7FFE00
FFFE00
FFC000
FC0000
700000
000000
000000
000000
000000
000000
000000
000000
000000
ENDCHAR

STARTCHAR Code229
ENCODING 229
SWIDTH 451 0
DWIDTH 20 0
BBX 20 40 0 -6
BITMAP
000000
000000
000000
000000
000000
000000
000000
000000
000000
000700
000F00
001F00
007E00
00FC00
01F000
03F000
07FC00
07FE00
0F1E00
1E0F00
1C0700
3C0700
380700
380700
380F00
380F00
3C1E00
1E3E00
1FFC00
0FF800
03E000
000000
000000
000000
000000
000000
000000
000000
000000
000000
ENDCHAR

STARTCHAR Code230
ENCODING 230
SWIDTH 451 0
DWIDTH 20 0
BBX 20 40 0 -6
BITMAP
000000
000000
000000
000000
000000
000000
000000
000000
000000
000000
000000
000000
000000
000000
000000
000000
000000
0E3800
0E3800
0E3800
0E3800
0E3800
0E3800
1E7800
1C7000
1C7000
1C7000
1EF300
3FFF00
3FFF00
3FBE00
380000
780000
700000
700000
700000
700000
000000
000000
000000
ENDCHAR

STARTCHAR Code231
ENCODING 231
SWIDTH 451 0
DWIDTH 20 0
BBX 20 40 0 -6
BITMAP
000000
000000
000000
000000
000000
000000
000000
000000
000000
000000
000000
000000
000000
000000
000000
000000
000000
07FF80
07FF80
07FF80
007000
007000
00F000
00E000
00E000
01E000
01C000
01C000
01DC00
01FC00
00F800
000000
000000
000000
000000
000000
000000
000000
000000
000000
ENDCHAR

STARTCHAR Code232
ENCODING 232
SWIDTH 451 0
DWIDTH 20 0
BBX 20 40 0 -6
BITMAP
000000
000000
000000
0001C0
01FFC0
07FFC0
0FFF80
0FE7C0
0DE7C0
03C7E0
078EE0
078EE0
0F1CE0
0E1CE0
1E18E0
1C39E0
1C39C0
3C71C0
3871C0
3863C0
38E380
78E380
70C780
71C700
71CF00
718E00
739E00
73BC00
7B7C00
3FF800
3FF000
1FE000
0F8000
0E0000
0E0000
0E0000
000000
000000
000000
000000
ENDCHAR

STARTCHAR Code233
ENCODING 233
SWIDTH 451 0
DWIDTH 20 0
BBX 20 40 0 -6
BITMAP
000000
000000
000000
000000
03FC00
0FFF00
1FFF80
1EEFC0
19E3C0
03C1E0
0781E0
0700E0
0F00E0
0E00E0
1E01E0
1C01E0
1FE1C0
3FFFC0
3FFFC0
383FC0
380380
780780
700780
700F00
700F00
701E00
701E00
703C00
787C00
3CF800
3FF000
1FE000
0F8000
000000
000000
000000
000000
000000
000000
000000
ENDCHAR

STARTCHAR Code234
ENCODING 234
SWIDTH 451 0
DWIDTH 20 0
BBX 20 40 0 -6
BITMAP
000000
000000
000000
000000
00FE00
03FF80
07FFC0
0FC7E0
1F01E0
3E00F0
3C00F0
780070
780070
700070
700070
F00070
E00070
E000F0
E000F0
E000E0
E001E0
F001E0
7003C0
7007C0
780F80
3C3F00
3C7E00
1E7800
0EF000
0EF000
0EE7C0
FEFFC0
FEFFC0
FC7C00
000000
000000
000000
000000
000000
000000
ENDCHAR

STARTCHAR Code235
ENCODING 235
SWIDTH 451 0
DWIDTH 20 0
BBX 20 40 0 -6
BITMAP
000000
000000
000000
003F80
007FC0
00FFE0
00F1E0
00E0E0
00E0E0
00E000
00E000
00F000
007000
007800
003800
01F800
07FC00
0FFC00
1F9C00
1E1C00
3C1C00
3C1C00
381C00
783C00
783C00
703800
707800
707800
70F000
79F000
7FE000
3FC000
1F0000
000000
000000
000000
000000
000000
000000
000000
ENDCHAR

STARTCHAR Code236
ENCODING 236
SWIDTH 451 0
DWIDTH 20 0
BBX 20 40 0 -6
BITMAP
000000
000000
000000
000000
000000
000000
000000
000000
000000
000000
03C1E0
0FE7F0
1FEFF0
3EEF70
3CFE70
38FC70
78FC70
70F870
70F870
71F8F0
71F8E0
73F9E0
77BBE0
7FBFC0
7F3F80
3C1E00
000000
000000
000000
000000
000000
000000
000000
000000
000000
000000
000000
000000
000000
000000
ENDCHAR

STARTCHAR Code237
ENCODING 237
SWIDTH 451 0
DWIDTH 20 0
BBX 20 40 0 -6
BITMAP
000000
000000
000000
000000
000000
000000
000000
000000
000000
000000
000000
000000
000000
000000
000000
000000
000000
007E00
01FE00
03FE00
03DE00
07BC00
077C00
07FC00
07FC00
07DC00
07BC00
0F7800
1FF800
1FF000
19C000
000000
000000
000000
000000
000000
000000
000000
000000
000000
ENDCHAR

STARTCHAR Code238
ENCODING 238
SWIDTH 451 0
DWIDTH 20 0
BBX 20 40 0 -6
BITMAP
000000
000000
000000
000000
000000
000000
000000
000000
000000
000000
000000
000000
000000
000000
000000
000000
000000
01F000
03FC00
07BE00
070E00
07C600
03F000
07F000
0F7000
1E0000
1C0C00
1E1C00
1FFC00
0FF800
07F000
000000
000000
000000
000000
000000
000000
000000
000000
000000
ENDCHAR

STARTCHAR Code239
ENCODING 239
SWIDTH 451 0
DWIDTH 20 0
BBX 20 40 0 -6
BITMAP
000000
000000
000000
000000
007F00
01FFC0
03FFE0
07E1E0
0780F0
0F0070
0F0070
0E0070
0E0070
0E0070
0E0070
0E0070
0E00F0
1E00E0
1C00E0
1C00E0
1C00E0
1C01E0
1C01C0
1C01C0
3C03C0
380380
380780
380700
780F00
700E00
701E00
F03C00
E03C00
E03800
000000
000000
000000
000000
000000
000000
ENDCHAR

STARTCHAR Code240
ENCODING 240
SWIDTH 451 0
DWIDTH 20 0
BBX 20 40 0 -6
BITMAP
000000
000000
000000
000000
000000
000000
000000
000000
000000
000000
000000
000000
000000
000000
000000
000000
000000
000000
03FE00
1FFF80
1FFF80
1E0380
03FE00
1FFF80
1FFF80
1E0380
03FE00
1FFF80
1FFF80
1E0380
000000
000000
000000
000000
000000
000000
000000
000000
000000
000000
ENDCHAR

STARTCHAR Code241
ENCODING 241
SWIDTH 451 0
DWIDTH 20 0
BBX 20 40 0 -6
BITMAP
000000
000000
000000
000000
000000
000000
000000
000000
000000
000000
000000
00E000
00E000
00E000
00E000
00E000
00E000
03FE00
3FFFC0
3FFFC0
3E73C0
007000
007000
007000
007000
007000
01FC00
1FFF80
1FFF80
1F0780
000000
000000
000000
000000
000000
000000
000000
000000
000000
000000
ENDCHAR

STARTCHAR Code242
ENCODING 242
SWIDTH 451 0
DWIDTH 20 0
BBX 20 40 0 -6
BITMAP
000000
000000
000000
000000
000000
000000
000000
000000
000000
000000
000000
001C00
001C00
001E00
000E00
000E00
000F00
000700
000700
000F00
001F00
003E00
00FC00
01F000
03E000
03C000
038000
003FC0
1FFFC0
1FFFC0
1FE000
000000
000000
000000
000000
000000
000000
000000
000000
000000
ENDCHAR

STARTCHAR Code243
ENCODING 243
SWIDTH 451 0
DWIDTH 20 0
BBX 20 40 0 -6
BITMAP
000000
000000
000000
000000
000000
000000
000000
000000
000000
000000
000000
000700
000F00
001F00
003E00
00FC00
01F800
03E000
03C000
038000
038000
038000
038000
03C000
01C000
01E000
00E000
00FFC0
1FFFC0
1FFFC0
1FE000
000000
000000
000000
000000
000000
000000
000000
000000
000000
ENDCHAR

STARTCHAR Code244
ENCODING 244
SWIDTH 451 0
DWIDTH 20 0
BBX 20 40 0 -6
BITMAP
000000
000000
000000
000000
000000
00C000
01F000
01F000
01F000
03F000
030000
030000
030000
030000
030000
030000
038000
038000
038000
038000
038000
038000
038000
038000
018000
018000
01C000
01C000
01C000
01C000
01C000
01C000
01C000
01C000
01C000
00E000
00E000
00E000
00E000
00E000
ENDCHAR

STARTCHAR Code245
ENCODING 245
SWIDTH 451 0
DWIDTH 20 0
BBX 20 40 0 -6
BITMAP
00E000
00E000
00E000
00E000
00E000
006000
007000
007000
007000
007000
007000
007000
007000
007000
007000
003000
003000
003000
003000
003000
003800
003800
003800
003800
003800
001800
001800
01D800
01F800
01F000
01F000
01E000
000000
000000
000000
000000
000000
000000
000000
000000
ENDCHAR

STARTCHAR Code246
ENCODING 246
SWIDTH 451 0
DWIDTH 20 0
BBX 20 40 0 -6
BITMAP
000000
000000
000000
000000
000000
000000
000000
000000
000000
000000
003000
007800
00F800
00F800
007000
000000
000000
000000
007F80
3FFF80
3FE000
000000
000000
006000
00F000
01F000
01F000
00E000
000000
000000
000000
000000
000000
000000
000000
000000
000000
000000
000000
000000
ENDCHAR

STARTCHAR Code247
ENCODING 247
SWIDTH 451 0
DWIDTH 20 0
BBX 20 40 0 -6
BITMAP
000000
000000
000000
000000
000000
000000
000000
000000
000000
000000
000000
000000
000000
000000
000000
03E000
07F180
07FF80
063F80
001F00
03E000
07F180
07FF80
063F80
001F00
000000
000000
000000
000000
000000
000000
000000
000000
000000
000000
000000
000000
000000
000000
000000
ENDCHAR

STARTCHAR Code248
ENCODING 248
SWIDTH 451 0
DWIDTH 20 0
BBX 20 40 0 -6
BITMAP
000000
07C000
0FE000
1EF000
1C7000
383000
383000
303000
387000
3CF000
1FE000
0FC000
000000
000000
000000
000000
000000
000000
000000
000000
000000
000000
000000
000000
000000
000000
000000
000000
000000
000000
000000
000000
000000
000000
000000
000000
000000
000000
000000
000000
ENDCHAR

STARTCHAR Code249
ENCODING 249
SWIDTH 451 0
DWIDTH 20 0
BBX 20 40 0 -6
BITMAP
000000
000000
000000
000000
000000
000000
000000
000000
000000
000000
000000
000000
000000
00F000
01FC00
03FC00
07FE00
07FE00
07FE00
07FE00
07FE00
03FC00
03FC00
00F000
000000
000000
000000
000000
000000
000000
000000
000000
000000
000000
000000
000000
000000
000000
000000
000000
ENDCHAR

STARTCHAR Code250
ENCODING 250
SWIDTH 451 0
DWIDTH 20 0
BBX 20 40 0 -6
BITMAP
000000
000000
000000
000000
000000
000000
000000
000000
000000
000000
000000
000000
000000
000000
000000
00F000
01F800
01F800
01F800
01F800
01F800
00F000
000000
000000
000000
000000
000000
000000
000000
000000
000000
000000
000000
000000
000000
000000
000000
000000
000000
000000
ENDCHAR

STARTCHAR Code251
ENCODING 251
SWIDTH 451 0
DWIDTH 20 0
BBX 20 40 0 -6
BITMAP
003FF0
003FF0
003800
003800
003800
003800
003800
003800
003800
003800
003800
003800
003800
003800
007800
007000
007000
007000
007000
007000
007000
007000
707000
707000
707000
F8F000
F8E000
F8E000
FCE000
1CE000
0EE000
0FE000
07C000
07C000
03C000
03C000
01C000
000000
000000
000000
ENDCHAR

STARTCHAR Code252
ENCODING 252
SWIDTH 451 0
DWIDTH 20 0
BBX 20 40 0 -6
BITMAP
000000
000000
01CE00
01DE00
01FE00
01FE00
03FE00
03FE00
03DC00
03DC00
079C00
079C00
071C00
071E00
070E00
000E00
000E00
000000
000000
000000
000000
000000
000000
000000
000000
000000
000000
000000
000000
000000
000000
000000
000000
000000
000000
000000
000000
000000
000000
000000
ENDCHAR

STARTCHAR Code253
ENCODING 253
SWIDTH 451 0
DWIDTH 20 0
BBX 20 40 0 -6
BITMAP
000000
000000
00FC00
01FE00
01CE00
018E00
019E00
001C00
003C00
007800
00F000
01E000
03FE00
07FE00
07F000
000000
000000
000000
000000
000000
000000
000000
000000
000000
000000
000000
000000
000000
000000
000000
000000
000000
000000
000000
000000
000000
000000
000000
000000
000000
ENDCHAR

STARTCHAR Code254
ENCODING 254
SWIDTH 451 0
DWIDTH 20 0
BBX 20 40 0 -6
BITMAP
000000
000000
000000
000000
000000
000000
07FE00
07FE00
07FE00
07FE00
07FE00
07FE00
07FE00
07FE00
07FE00
07FE00
07FE00
07FE00
07FE00
07FE00
07FE00
07FE00
07FE00
07FE00
07FE00
07FE00
07FE00
07FE00
07FE00
07FE00
07FE00
07FE00
000000
000000
000000
000000
000000
000000
000000
000000
ENDCHAR

STARTCHAR Code255
ENCODING 255
SWIDTH 451 0
DWIDTH 20 0
BBX 20 40 0 -6
BITMAP
000000
000000
000000
000000
000000
000000
000000
000000
000000
000000
000000
000000
000000
000000
000000
000000
000000
000000
000000
000000
000000
000000
000000
000000
000000
000000
000000
000000
000000
000000
000000
000000
000000
000000
000000
000000
000000
000000
000000
000000
ENDCHAR
ENDFONT
